solid ascii
  facet normal -5.233596e-002 -9.986295e-001 2.365514e-015
    outer loop
      vertex   -1.367099e+002 4.699950e+001 3.000000e+000
      vertex   -1.372325e+002 4.702689e+001 3.000000e+000
      vertex   -1.367099e+002 4.699950e+001 -1.110223e-015
    endloop
  endfacet
  facet normal -5.233596e-002 -9.986295e-001 -0.000000e+000
    outer loop
      vertex   -1.367099e+002 4.699950e+001 -1.110223e-015
      vertex   -1.372325e+002 4.702689e+001 3.000000e+000
      vertex   -1.372325e+002 4.702689e+001 -1.110223e-015
    endloop
  endfacet
  facet normal -1.564345e-001 -9.876883e-001 0.000000e+000
    outer loop
      vertex   -1.372325e+002 4.702689e+001 -1.110223e-015
      vertex   -1.372325e+002 4.702689e+001 3.000000e+000
      vertex   -1.377495e+002 4.710876e+001 3.000000e+000
    endloop
  endfacet
  facet normal -2.588190e-001 -9.659258e-001 0.000000e+000
    outer loop
      vertex   -1.377495e+002 4.710876e+001 -1.110223e-015
      vertex   -1.377495e+002 4.710876e+001 3.000000e+000
      vertex   -1.382550e+002 4.724422e+001 3.000000e+000
    endloop
  endfacet
  facet normal -3.583679e-001 -9.335804e-001 0.000000e+000
    outer loop
      vertex   -1.382550e+002 4.724422e+001 -1.110223e-015
      vertex   -1.382550e+002 4.724422e+001 3.000000e+000
      vertex   -1.387436e+002 4.743177e+001 3.000000e+000
    endloop
  endfacet
  facet normal -4.539905e-001 -8.910065e-001 0.000000e+000
    outer loop
      vertex   -1.387436e+002 4.743177e+001 -1.110223e-015
      vertex   -1.387436e+002 4.743177e+001 3.000000e+000
      vertex   -1.392099e+002 4.766937e+001 3.000000e+000
    endloop
  endfacet
  facet normal -5.446390e-001 -8.386706e-001 0.000000e+000
    outer loop
      vertex   -1.392099e+002 4.766937e+001 -1.110223e-015
      vertex   -1.392099e+002 4.766937e+001 3.000000e+000
      vertex   -1.396488e+002 4.795442e+001 3.000000e+000
    endloop
  endfacet
  facet normal -6.293204e-001 -7.771460e-001 0.000000e+000
    outer loop
      vertex   -1.396488e+002 4.795442e+001 -1.110223e-015
      vertex   -1.396488e+002 4.795442e+001 3.000000e+000
      vertex   -1.400556e+002 4.828378e+001 -1.110223e-015
    endloop
  endfacet
  facet normal -5.446390e-001 -8.386706e-001 0.000000e+000
    outer loop
      vertex   -1.396488e+002 4.795442e+001 -1.110223e-015
      vertex   -1.392099e+002 4.766937e+001 -1.110223e-015
      vertex   -1.396488e+002 4.795442e+001 3.000000e+000
    endloop
  endfacet
  facet normal -1.564345e-001 -9.876883e-001 -0.000000e+000
    outer loop
      vertex   -1.372325e+002 4.702689e+001 -1.110223e-015
      vertex   -1.377495e+002 4.710876e+001 3.000000e+000
      vertex   -1.377495e+002 4.710876e+001 -1.110223e-015
    endloop
  endfacet
  facet normal -2.588190e-001 -9.659258e-001 -0.000000e+000
    outer loop
      vertex   -1.377495e+002 4.710876e+001 -1.110223e-015
      vertex   -1.382550e+002 4.724422e+001 3.000000e+000
      vertex   -1.382550e+002 4.724422e+001 -1.110223e-015
    endloop
  endfacet
  facet normal -3.583679e-001 -9.335804e-001 -0.000000e+000
    outer loop
      vertex   -1.382550e+002 4.724422e+001 -1.110223e-015
      vertex   -1.387436e+002 4.743177e+001 3.000000e+000
      vertex   -1.387436e+002 4.743177e+001 -1.110223e-015
    endloop
  endfacet
  facet normal -4.539905e-001 -8.910065e-001 -0.000000e+000
    outer loop
      vertex   -1.387436e+002 4.743177e+001 -1.110223e-015
      vertex   -1.392099e+002 4.766937e+001 3.000000e+000
      vertex   -1.392099e+002 4.766937e+001 -1.110223e-015
    endloop
  endfacet
  facet normal -6.293204e-001 -7.771460e-001 -0.000000e+000
    outer loop
      vertex   -1.396488e+002 4.795442e+001 3.000000e+000
      vertex   -1.400556e+002 4.828378e+001 3.000000e+000
      vertex   -1.400556e+002 4.828378e+001 -1.110223e-015
    endloop
  endfacet
  facet normal -7.071068e-001 -7.071068e-001 0.000000e+000
    outer loop
      vertex   -1.400556e+002 4.828378e+001 -1.110223e-015
      vertex   -1.400556e+002 4.828378e+001 3.000000e+000
      vertex   -1.404256e+002 4.865385e+001 -1.110223e-015
    endloop
  endfacet
  facet normal -7.071068e-001 -7.071068e-001 0.000000e+000
    outer loop
      vertex   -1.404256e+002 4.865385e+001 -1.110223e-015
      vertex   -1.400556e+002 4.828378e+001 3.000000e+000
      vertex   -1.404256e+002 4.865385e+001 3.000000e+000
    endloop
  endfacet
  facet normal -7.771460e-001 -6.293204e-001 0.000000e+000
    outer loop
      vertex   -1.407550e+002 4.906057e+001 -1.110223e-015
      vertex   -1.404256e+002 4.865385e+001 3.000000e+000
      vertex   -1.407550e+002 4.906057e+001 3.000000e+000
    endloop
  endfacet
  facet normal -8.386706e-001 -5.446390e-001 0.000000e+000
    outer loop
      vertex   -1.410400e+002 4.949950e+001 3.000000e+000
      vertex   -1.407550e+002 4.906057e+001 -1.110223e-015
      vertex   -1.407550e+002 4.906057e+001 3.000000e+000
    endloop
  endfacet
  facet normal -8.386706e-001 -5.446390e-001 -0.000000e+000
    outer loop
      vertex   -1.410400e+002 4.949950e+001 3.000000e+000
      vertex   -1.410400e+002 4.949950e+001 -1.110223e-015
      vertex   -1.407550e+002 4.906057e+001 -1.110223e-015
    endloop
  endfacet
  facet normal -8.910065e-001 -4.539905e-001 0.000000e+000
    outer loop
      vertex   -1.410400e+002 4.949950e+001 3.000000e+000
      vertex   -1.412776e+002 4.996582e+001 3.000000e+000
      vertex   -1.410400e+002 4.949950e+001 -1.110223e-015
    endloop
  endfacet
  facet normal -8.910065e-001 -4.539905e-001 -0.000000e+000
    outer loop
      vertex   -1.410400e+002 4.949950e+001 -1.110223e-015
      vertex   -1.412776e+002 4.996582e+001 3.000000e+000
      vertex   -1.412776e+002 4.996582e+001 -1.110223e-015
    endloop
  endfacet
  facet normal -9.335804e-001 -3.583679e-001 0.000000e+000
    outer loop
      vertex   -1.412776e+002 4.996582e+001 -1.110223e-015
      vertex   -1.412776e+002 4.996582e+001 3.000000e+000
      vertex   -1.414652e+002 5.045442e+001 3.000000e+000
    endloop
  endfacet
  facet normal -9.659258e-001 -2.588190e-001 0.000000e+000
    outer loop
      vertex   -1.414652e+002 5.045442e+001 -1.110223e-015
      vertex   -1.414652e+002 5.045442e+001 3.000000e+000
      vertex   -1.416006e+002 5.095994e+001 3.000000e+000
    endloop
  endfacet
  facet normal -9.876883e-001 -1.564345e-001 0.000000e+000
    outer loop
      vertex   -1.416006e+002 5.095994e+001 -1.110223e-015
      vertex   -1.416006e+002 5.095994e+001 3.000000e+000
      vertex   -1.416825e+002 5.147686e+001 3.000000e+000
    endloop
  endfacet
  facet normal -9.986295e-001 -5.233596e-002 0.000000e+000
    outer loop
      vertex   -1.416825e+002 5.147686e+001 -1.110223e-015
      vertex   -1.416825e+002 5.147686e+001 3.000000e+000
      vertex   -1.417099e+002 5.199950e+001 3.000000e+000
    endloop
  endfacet
  facet normal -9.986295e-001 -5.233596e-002 0.000000e+000
    outer loop
      vertex   -1.417099e+002 5.199950e+001 -1.110223e-015
      vertex   -1.416825e+002 5.147686e+001 -1.110223e-015
      vertex   -1.417099e+002 5.199950e+001 3.000000e+000
    endloop
  endfacet
  facet normal -7.771460e-001 -6.293204e-001 0.000000e+000
    outer loop
      vertex   -1.404256e+002 4.865385e+001 -1.110223e-015
      vertex   -1.404256e+002 4.865385e+001 3.000000e+000
      vertex   -1.407550e+002 4.906057e+001 -1.110223e-015
    endloop
  endfacet
  facet normal -9.335804e-001 -3.583679e-001 -0.000000e+000
    outer loop
      vertex   -1.412776e+002 4.996582e+001 -1.110223e-015
      vertex   -1.414652e+002 5.045442e+001 3.000000e+000
      vertex   -1.414652e+002 5.045442e+001 -1.110223e-015
    endloop
  endfacet
  facet normal -9.659258e-001 -2.588190e-001 -0.000000e+000
    outer loop
      vertex   -1.414652e+002 5.045442e+001 -1.110223e-015
      vertex   -1.416006e+002 5.095994e+001 3.000000e+000
      vertex   -1.416006e+002 5.095994e+001 -1.110223e-015
    endloop
  endfacet
  facet normal -9.876883e-001 -1.564345e-001 -0.000000e+000
    outer loop
      vertex   -1.416006e+002 5.095994e+001 -1.110223e-015
      vertex   -1.416825e+002 5.147686e+001 3.000000e+000
      vertex   -1.416825e+002 5.147686e+001 -1.110223e-015
    endloop
  endfacet
  facet normal 0.000000e+000 -1.000000e+000 2.368476e-015
    outer loop
      vertex   -1.367099e+002 4.699950e+001 -1.110223e-015
      vertex   -1.247099e+002 4.699950e+001 -1.110223e-015
      vertex   -1.367099e+002 4.699950e+001 3.000000e+000
    endloop
  endfacet
  facet normal 0.000000e+000 -1.000000e+000 2.368476e-015
    outer loop
      vertex   -1.367099e+002 4.699950e+001 3.000000e+000
      vertex   -1.247099e+002 4.699950e+001 -1.110223e-015
      vertex   -1.247099e+002 4.699950e+001 3.000000e+000
    endloop
  endfacet
  facet normal -0.000000e+000 -0.000000e+000 -1.000000e+000
    outer loop
      vertex   -1.196783e+002 5.239137e+001 -1.110223e-015
      vertex   -1.168916e+002 5.076460e+001 -1.110223e-015
      vertex   -1.196503e+002 5.200000e+001 -1.110223e-015
    endloop
  endfacet
  facet normal 0.000000e+000 -0.000000e+000 -1.000000e+000
    outer loop
      vertex   -1.196783e+002 5.239137e+001 -1.110223e-015
      vertex   -1.164475e+002 5.136630e+001 -1.110223e-015
      vertex   -1.168916e+002 5.076460e+001 -1.110223e-015
    endloop
  endfacet
  facet normal 0.000000e+000 0.000000e+000 -1.000000e+000
    outer loop
      vertex   -1.196783e+002 5.239137e+001 -1.110223e-015
      vertex   -1.197617e+002 5.277476e+001 -1.110223e-015
      vertex   -1.164475e+002 5.136630e+001 -1.110223e-015
    endloop
  endfacet
  facet normal 0.000000e+000 0.000000e+000 -1.000000e+000
    outer loop
      vertex   -1.164475e+002 5.136630e+001 -1.110223e-015
      vertex   -1.197617e+002 5.277476e+001 -1.110223e-015
      vertex   -1.160496e+002 5.199950e+001 -1.110223e-015
    endloop
  endfacet
  facet normal 0.000000e+000 0.000000e+000 -1.000000e+000
    outer loop
      vertex   -1.160496e+002 5.199950e+001 -1.110223e-015
      vertex   -1.197617e+002 5.277476e+001 -1.110223e-015
      vertex   -1.157002e+002 5.266066e+001 -1.110223e-015
    endloop
  endfacet
  facet normal 0.000000e+000 0.000000e+000 -1.000000e+000
    outer loop
      vertex   -1.157002e+002 5.266066e+001 -1.110223e-015
      vertex   -1.197617e+002 5.277476e+001 -1.110223e-015
      vertex   -1.198988e+002 5.314239e+001 -1.110223e-015
    endloop
  endfacet
  facet normal -0.000000e+000 0.000000e+000 -1.000000e+000
    outer loop
      vertex   -1.154012e+002 5.334609e+001 -1.110223e-015
      vertex   -1.198988e+002 5.314239e+001 -1.110223e-015
      vertex   -1.151542e+002 5.405195e+001 -1.110223e-015
    endloop
  endfacet
  facet normal -0.000000e+000 0.000000e+000 -1.000000e+000
    outer loop
      vertex   -1.154012e+002 5.334609e+001 -1.110223e-015
      vertex   -1.157002e+002 5.266066e+001 -1.110223e-015
      vertex   -1.198988e+002 5.314239e+001 -1.110223e-015
    endloop
  endfacet
  facet normal 0.000000e+000 0.000000e+000 -1.000000e+000
    outer loop
      vertex   -1.198988e+002 5.314239e+001 -1.110223e-015
      vertex   -1.200869e+002 5.348676e+001 -1.110223e-015
      vertex   -1.151542e+002 5.405195e+001 -1.110223e-015
    endloop
  endfacet
  facet normal -0.000000e+000 0.000000e+000 -1.000000e+000
    outer loop
      vertex   -1.151542e+002 5.405195e+001 -1.110223e-015
      vertex   -1.200869e+002 5.348676e+001 -1.110223e-015
      vertex   -1.149606e+002 5.477429e+001 -1.110223e-015
    endloop
  endfacet
  facet normal -0.000000e+000 0.000000e+000 -1.000000e+000
    outer loop
      vertex   -1.149606e+002 5.477429e+001 -1.110223e-015
      vertex   -1.200869e+002 5.348676e+001 -1.110223e-015
      vertex   -1.148216e+002 5.550908e+001 -1.110223e-015
    endloop
  endfacet
  facet normal -0.000000e+000 0.000000e+000 -1.000000e+000
    outer loop
      vertex   -1.148216e+002 5.550908e+001 -1.110223e-015
      vertex   -1.200869e+002 5.348676e+001 -1.110223e-015
      vertex   -1.147379e+002 5.625220e+001 -1.110223e-015
    endloop
  endfacet
  facet normal -0.000000e+000 0.000000e+000 -1.000000e+000
    outer loop
      vertex   -1.147379e+002 5.625220e+001 -1.110223e-015
      vertex   -1.200869e+002 5.348676e+001 -1.110223e-015
      vertex   -1.203220e+002 5.380087e+001 -1.110223e-015
    endloop
  endfacet
  facet normal -0.000000e+000 0.000000e+000 -1.000000e+000
    outer loop
      vertex   -1.147099e+002 5.699950e+001 -1.110223e-015
      vertex   -1.203220e+002 5.380087e+001 -1.110223e-015
      vertex   -1.205994e+002 5.407831e+001 -1.110223e-015
    endloop
  endfacet
  facet normal 0.000000e+000 -0.000000e+000 -1.000000e+000
    outer loop
      vertex   -1.209135e+002 5.431345e+001 -1.110223e-015
      vertex   -1.147099e+002 5.699950e+001 -1.110223e-015
      vertex   -1.205994e+002 5.407831e+001 -1.110223e-015
    endloop
  endfacet
  facet normal 0.000000e+000 0.000000e+000 -1.000000e+000
    outer loop
      vertex   -1.209135e+002 5.431345e+001 -1.110223e-015
      vertex   -1.212579e+002 5.450149e+001 -1.110223e-015
      vertex   -1.147099e+002 5.699950e+001 -1.110223e-015
    endloop
  endfacet
  facet normal -0.000000e+000 0.000000e+000 -1.000000e+000
    outer loop
      vertex   -1.147099e+002 5.699950e+001 -1.110223e-015
      vertex   -1.212579e+002 5.450149e+001 -1.110223e-015
      vertex   -1.216255e+002 5.463861e+001 -1.110223e-015
    endloop
  endfacet
  facet normal 0.000000e+000 -0.000000e+000 -1.000000e+000
    outer loop
      vertex   -1.220089e+002 5.472201e+001 -1.110223e-015
      vertex   -1.147099e+002 5.699950e+001 -1.110223e-015
      vertex   -1.216255e+002 5.463861e+001 -1.110223e-015
    endloop
  endfacet
  facet normal 0.000000e+000 -0.000000e+000 -1.000000e+000
    outer loop
      vertex   -1.220089e+002 5.472201e+001 -1.110223e-015
      vertex   -1.147099e+002 8.413750e+001 -1.110223e-015
      vertex   -1.147099e+002 5.699950e+001 -1.110223e-015
    endloop
  endfacet
  facet normal 0.000000e+000 0.000000e+000 -1.000000e+000
    outer loop
      vertex   -1.220089e+002 5.472201e+001 -1.110223e-015
      vertex   -1.224003e+002 5.475000e+001 -1.110223e-015
      vertex   -1.147099e+002 8.413750e+001 -1.110223e-015
    endloop
  endfacet
  facet normal 0.000000e+000 0.000000e+000 -1.000000e+000
    outer loop
      vertex   -1.147099e+002 8.413750e+001 -1.110223e-015
      vertex   -1.224003e+002 5.475000e+001 -1.110223e-015
      vertex   -1.227917e+002 5.472201e+001 -1.110223e-015
    endloop
  endfacet
  facet normal 0.000000e+000 -0.000000e+000 -1.000000e+000
    outer loop
      vertex   -1.367099e+002 6.800000e+001 -1.110223e-015
      vertex   -1.227917e+002 5.472201e+001 -1.110223e-015
      vertex   -1.231751e+002 5.463861e+001 -1.110223e-015
    endloop
  endfacet
  facet normal 0.000000e+000 0.000000e+000 -1.000000e+000
    outer loop
      vertex   -1.235427e+002 5.450149e+001 -1.110223e-015
      vertex   -1.367099e+002 6.800000e+001 -1.110223e-015
      vertex   -1.231751e+002 5.463861e+001 -1.110223e-015
    endloop
  endfacet
  facet normal -0.000000e+000 0.000000e+000 -1.000000e+000
    outer loop
      vertex   -1.235427e+002 5.450149e+001 -1.110223e-015
      vertex   -1.238871e+002 5.431345e+001 -1.110223e-015
      vertex   -1.367099e+002 6.800000e+001 -1.110223e-015
    endloop
  endfacet
  facet normal 0.000000e+000 -0.000000e+000 -1.000000e+000
    outer loop
      vertex   -1.367099e+002 6.800000e+001 -1.110223e-015
      vertex   -1.238871e+002 5.431345e+001 -1.110223e-015
      vertex   -1.242012e+002 5.407831e+001 -1.110223e-015
    endloop
  endfacet
  facet normal 0.000000e+000 0.000000e+000 -1.000000e+000
    outer loop
      vertex   -1.244786e+002 5.380087e+001 -1.110223e-015
      vertex   -1.367099e+002 6.800000e+001 -1.110223e-015
      vertex   -1.242012e+002 5.407831e+001 -1.110223e-015
    endloop
  endfacet
  facet normal -0.000000e+000 0.000000e+000 -1.000000e+000
    outer loop
      vertex   -1.244786e+002 5.380087e+001 -1.110223e-015
      vertex   -1.247137e+002 5.348676e+001 -1.110223e-015
      vertex   -1.367099e+002 6.800000e+001 -1.110223e-015
    endloop
  endfacet
  facet normal 0.000000e+000 -0.000000e+000 -1.000000e+000
    outer loop
      vertex   -1.367099e+002 6.800000e+001 -1.110223e-015
      vertex   -1.247137e+002 5.348676e+001 -1.110223e-015
      vertex   -1.249018e+002 5.314239e+001 -1.110223e-015
    endloop
  endfacet
  facet normal 0.000000e+000 0.000000e+000 -1.000000e+000
    outer loop
      vertex   -1.250389e+002 5.277476e+001 -1.110223e-015
      vertex   -1.367099e+002 6.800000e+001 -1.110223e-015
      vertex   -1.249018e+002 5.314239e+001 -1.110223e-015
    endloop
  endfacet
  facet normal -0.000000e+000 0.000000e+000 -1.000000e+000
    outer loop
      vertex   -1.250389e+002 5.277476e+001 -1.110223e-015
      vertex   -1.367099e+002 4.699950e+001 -1.110223e-015
      vertex   -1.367099e+002 6.800000e+001 -1.110223e-015
    endloop
  endfacet
  facet normal 0.000000e+000 0.000000e+000 -1.000000e+000
    outer loop
      vertex   -1.250389e+002 5.277476e+001 -1.110223e-015
      vertex   -1.251223e+002 5.239137e+001 -1.110223e-015
      vertex   -1.367099e+002 4.699950e+001 -1.110223e-015
    endloop
  endfacet
  facet normal 0.000000e+000 -0.000000e+000 -1.000000e+000
    outer loop
      vertex   -1.367099e+002 4.699950e+001 -1.110223e-015
      vertex   -1.251223e+002 5.239137e+001 -1.110223e-015
      vertex   -1.251503e+002 5.200000e+001 -1.110223e-015
    endloop
  endfacet
  facet normal -0.000000e+000 0.000000e+000 -1.000000e+000
    outer loop
      vertex   -1.251223e+002 5.160863e+001 -1.110223e-015
      vertex   -1.367099e+002 4.699950e+001 -1.110223e-015
      vertex   -1.251503e+002 5.200000e+001 -1.110223e-015
    endloop
  endfacet
  facet normal 0.000000e+000 -0.000000e+000 -1.000000e+000
    outer loop
      vertex   -1.251223e+002 5.160863e+001 -1.110223e-015
      vertex   -1.250389e+002 5.122524e+001 -1.110223e-015
      vertex   -1.367099e+002 4.699950e+001 -1.110223e-015
    endloop
  endfacet
  facet normal 0.000000e+000 0.000000e+000 -1.000000e+000
    outer loop
      vertex   -1.367099e+002 4.699950e+001 -1.110223e-015
      vertex   -1.250389e+002 5.122524e+001 -1.110223e-015
      vertex   -1.247099e+002 4.699950e+001 -1.110223e-015
    endloop
  endfacet
  facet normal 0.000000e+000 0.000000e+000 -1.000000e+000
    outer loop
      vertex   -1.247099e+002 4.699950e+001 -1.110223e-015
      vertex   -1.250389e+002 5.122524e+001 -1.110223e-015
      vertex   -1.249018e+002 5.085761e+001 -1.110223e-015
    endloop
  endfacet
  facet normal -0.000000e+000 -0.000000e+000 -1.000000e+000
    outer loop
      vertex   -1.247137e+002 5.051324e+001 -1.110223e-015
      vertex   -1.247099e+002 4.699950e+001 -1.110223e-015
      vertex   -1.249018e+002 5.085761e+001 -1.110223e-015
    endloop
  endfacet
  facet normal 0.000000e+000 -0.000000e+000 -1.000000e+000
    outer loop
      vertex   -1.247137e+002 5.051324e+001 -1.110223e-015
      vertex   -1.244786e+002 5.019913e+001 -1.110223e-015
      vertex   -1.247099e+002 4.699950e+001 -1.110223e-015
    endloop
  endfacet
  facet normal 0.000000e+000 0.000000e+000 -1.000000e+000
    outer loop
      vertex   -1.247099e+002 4.699950e+001 -1.110223e-015
      vertex   -1.244786e+002 5.019913e+001 -1.110223e-015
      vertex   -1.242012e+002 4.992169e+001 -1.110223e-015
    endloop
  endfacet
  facet normal -0.000000e+000 0.000000e+000 -1.000000e+000
    outer loop
      vertex   -1.238871e+002 4.968655e+001 -1.110223e-015
      vertex   -1.247099e+002 4.699950e+001 -1.110223e-015
      vertex   -1.242012e+002 4.992169e+001 -1.110223e-015
    endloop
  endfacet
  facet normal 0.000000e+000 0.000000e+000 -1.000000e+000
    outer loop
      vertex   -1.238871e+002 4.968655e+001 -1.110223e-015
      vertex   -1.239626e+002 4.702746e+001 -1.110223e-015
      vertex   -1.247099e+002 4.699950e+001 -1.110223e-015
    endloop
  endfacet
  facet normal 0.000000e+000 -0.000000e+000 -1.000000e+000
    outer loop
      vertex   -1.238871e+002 4.968655e+001 -1.110223e-015
      vertex   -1.235427e+002 4.949851e+001 -1.110223e-015
      vertex   -1.239626e+002 4.702746e+001 -1.110223e-015
    endloop
  endfacet
  facet normal 0.000000e+000 0.000000e+000 -1.000000e+000
    outer loop
      vertex   -1.239626e+002 4.702746e+001 -1.110223e-015
      vertex   -1.235427e+002 4.949851e+001 -1.110223e-015
      vertex   -1.232195e+002 4.711119e+001 -1.110223e-015
    endloop
  endfacet
  facet normal 0.000000e+000 0.000000e+000 -1.000000e+000
    outer loop
      vertex   -1.232195e+002 4.711119e+001 -1.110223e-015
      vertex   -1.235427e+002 4.949851e+001 -1.110223e-015
      vertex   -1.231751e+002 4.936139e+001 -1.110223e-015
    endloop
  endfacet
  facet normal -0.000000e+000 0.000000e+000 -1.000000e+000
    outer loop
      vertex   -1.227917e+002 4.927799e+001 -1.110223e-015
      vertex   -1.232195e+002 4.711119e+001 -1.110223e-015
      vertex   -1.231751e+002 4.936139e+001 -1.110223e-015
    endloop
  endfacet
  facet normal 0.000000e+000 -0.000000e+000 -1.000000e+000
    outer loop
      vertex   -1.227917e+002 4.927799e+001 -1.110223e-015
      vertex   -1.224847e+002 4.725022e+001 -1.110223e-015
      vertex   -1.232195e+002 4.711119e+001 -1.110223e-015
    endloop
  endfacet
  facet normal 0.000000e+000 -0.000000e+000 -1.000000e+000
    outer loop
      vertex   -1.227917e+002 4.927799e+001 -1.110223e-015
      vertex   -1.224003e+002 4.925000e+001 -1.110223e-015
      vertex   -1.224847e+002 4.725022e+001 -1.110223e-015
    endloop
  endfacet
  facet normal 0.000000e+000 0.000000e+000 -1.000000e+000
    outer loop
      vertex   -1.224847e+002 4.725022e+001 -1.110223e-015
      vertex   -1.224003e+002 4.925000e+001 -1.110223e-015
      vertex   -1.217623e+002 4.744377e+001 -1.110223e-015
    endloop
  endfacet
  facet normal 0.000000e+000 0.000000e+000 -1.000000e+000
    outer loop
      vertex   -1.217623e+002 4.744377e+001 -1.110223e-015
      vertex   -1.224003e+002 4.925000e+001 -1.110223e-015
      vertex   -1.220089e+002 4.927799e+001 -1.110223e-015
    endloop
  endfacet
  facet normal -0.000000e+000 0.000000e+000 -1.000000e+000
    outer loop
      vertex   -1.216255e+002 4.936139e+001 -1.110223e-015
      vertex   -1.217623e+002 4.744377e+001 -1.110223e-015
      vertex   -1.220089e+002 4.927799e+001 -1.110223e-015
    endloop
  endfacet
  facet normal 0.000000e+000 -0.000000e+000 -1.000000e+000
    outer loop
      vertex   -1.216255e+002 4.936139e+001 -1.110223e-015
      vertex   -1.210565e+002 4.769076e+001 -1.110223e-015
      vertex   -1.217623e+002 4.744377e+001 -1.110223e-015
    endloop
  endfacet
  facet normal 0.000000e+000 0.000000e+000 -1.000000e+000
    outer loop
      vertex   -1.216255e+002 4.936139e+001 -1.110223e-015
      vertex   -1.212579e+002 4.949851e+001 -1.110223e-015
      vertex   -1.210565e+002 4.769076e+001 -1.110223e-015
    endloop
  endfacet
  facet normal 0.000000e+000 0.000000e+000 -1.000000e+000
    outer loop
      vertex   -1.210565e+002 4.769076e+001 -1.110223e-015
      vertex   -1.212579e+002 4.949851e+001 -1.110223e-015
      vertex   -1.203711e+002 4.798981e+001 -1.110223e-015
    endloop
  endfacet
  facet normal 0.000000e+000 0.000000e+000 -1.000000e+000
    outer loop
      vertex   -1.203711e+002 4.798981e+001 -1.110223e-015
      vertex   -1.212579e+002 4.949851e+001 -1.110223e-015
      vertex   -1.209135e+002 4.968655e+001 -1.110223e-015
    endloop
  endfacet
  facet normal -0.000000e+000 -0.000000e+000 -1.000000e+000
    outer loop
      vertex   -1.205994e+002 4.992169e+001 -1.110223e-015
      vertex   -1.203711e+002 4.798981e+001 -1.110223e-015
      vertex   -1.209135e+002 4.968655e+001 -1.110223e-015
    endloop
  endfacet
  facet normal 0.000000e+000 -0.000000e+000 -1.000000e+000
    outer loop
      vertex   -1.205994e+002 4.992169e+001 -1.110223e-015
      vertex   -1.197099e+002 4.833925e+001 -1.110223e-015
      vertex   -1.203711e+002 4.798981e+001 -1.110223e-015
    endloop
  endfacet
  facet normal 0.000000e+000 0.000000e+000 -1.000000e+000
    outer loop
      vertex   -1.205994e+002 4.992169e+001 -1.110223e-015
      vertex   -1.203220e+002 5.019913e+001 -1.110223e-015
      vertex   -1.197099e+002 4.833925e+001 -1.110223e-015
    endloop
  endfacet
  facet normal 0.000000e+000 0.000000e+000 -1.000000e+000
    outer loop
      vertex   -1.197099e+002 4.833925e+001 -1.110223e-015
      vertex   -1.203220e+002 5.019913e+001 -1.110223e-015
      vertex   -1.190767e+002 4.873711e+001 -1.110223e-015
    endloop
  endfacet
  facet normal 0.000000e+000 0.000000e+000 -1.000000e+000
    outer loop
      vertex   -1.190767e+002 4.873711e+001 -1.110223e-015
      vertex   -1.203220e+002 5.019913e+001 -1.110223e-015
      vertex   -1.200869e+002 5.051324e+001 -1.110223e-015
    endloop
  endfacet
  facet normal -0.000000e+000 -0.000000e+000 -1.000000e+000
    outer loop
      vertex   -1.198988e+002 5.085761e+001 -1.110223e-015
      vertex   -1.190767e+002 4.873711e+001 -1.110223e-015
      vertex   -1.200869e+002 5.051324e+001 -1.110223e-015
    endloop
  endfacet
  facet normal 0.000000e+000 -0.000000e+000 -1.000000e+000
    outer loop
      vertex   -1.198988e+002 5.085761e+001 -1.110223e-015
      vertex   -1.184750e+002 4.918119e+001 -1.110223e-015
      vertex   -1.190767e+002 4.873711e+001 -1.110223e-015
    endloop
  endfacet
  facet normal 0.000000e+000 0.000000e+000 -1.000000e+000
    outer loop
      vertex   -1.198988e+002 5.085761e+001 -1.110223e-015
      vertex   -1.197617e+002 5.122524e+001 -1.110223e-015
      vertex   -1.184750e+002 4.918119e+001 -1.110223e-015
    endloop
  endfacet
  facet normal 0.000000e+000 0.000000e+000 -1.000000e+000
    outer loop
      vertex   -1.184750e+002 4.918119e+001 -1.110223e-015
      vertex   -1.197617e+002 5.122524e+001 -1.110223e-015
      vertex   -1.179082e+002 4.966898e+001 -1.110223e-015
    endloop
  endfacet
  facet normal 0.000000e+000 0.000000e+000 -1.000000e+000
    outer loop
      vertex   -1.179082e+002 4.966898e+001 -1.110223e-015
      vertex   -1.197617e+002 5.122524e+001 -1.110223e-015
      vertex   -1.196783e+002 5.160863e+001 -1.110223e-015
    endloop
  endfacet
  facet normal 0.000000e+000 0.000000e+000 -1.000000e+000
    outer loop
      vertex   -1.173794e+002 5.019777e+001 -1.110223e-015
      vertex   -1.196783e+002 5.160863e+001 -1.110223e-015
      vertex   -1.196503e+002 5.200000e+001 -1.110223e-015
    endloop
  endfacet
  facet normal -0.000000e+000 0.000000e+000 -1.000000e+000
    outer loop
      vertex   -1.168916e+002 5.076460e+001 -1.110223e-015
      vertex   -1.173794e+002 5.019777e+001 -1.110223e-015
      vertex   -1.196503e+002 5.200000e+001 -1.110223e-015
    endloop
  endfacet
  facet normal -0.000000e+000 0.000000e+000 -1.000000e+000
    outer loop
      vertex   -1.147379e+002 5.625220e+001 -1.110223e-015
      vertex   -1.203220e+002 5.380087e+001 -1.110223e-015
      vertex   -1.147099e+002 5.699950e+001 -1.110223e-015
    endloop
  endfacet
  facet normal -0.000000e+000 0.000000e+000 -1.000000e+000
    outer loop
      vertex   -1.147099e+002 8.413750e+001 -1.110223e-015
      vertex   -1.227917e+002 5.472201e+001 -1.110223e-015
      vertex   -1.367099e+002 6.800000e+001 -1.110223e-015
    endloop
  endfacet
  facet normal 0.000000e+000 -0.000000e+000 -1.000000e+000
    outer loop
      vertex   -1.367099e+002 8.413750e+001 -1.110223e-015
      vertex   -1.147099e+002 8.413750e+001 -1.110223e-015
      vertex   -1.367099e+002 6.800000e+001 -1.110223e-015
    endloop
  endfacet
  facet normal 0.000000e+000 0.000000e+000 -1.000000e+000
    outer loop
      vertex   -1.179082e+002 4.966898e+001 -1.110223e-015
      vertex   -1.196783e+002 5.160863e+001 -1.110223e-015
      vertex   -1.173794e+002 5.019777e+001 -1.110223e-015
    endloop
  endfacet
  facet normal -0.000000e+000 -0.000000e+000 -1.000000e+000
    outer loop
      vertex   -1.367099e+002 6.800000e+001 -1.110223e-015
      vertex   -1.367099e+002 4.699950e+001 -1.110223e-015
      vertex   -1.417099e+002 5.199950e+001 -1.110223e-015
    endloop
  endfacet
  facet normal 0.000000e+000 -0.000000e+000 -1.000000e+000
    outer loop
      vertex   -1.417099e+002 6.800000e+001 -1.110223e-015
      vertex   -1.367099e+002 6.800000e+001 -1.110223e-015
      vertex   -1.417099e+002 5.199950e+001 -1.110223e-015
    endloop
  endfacet
  facet normal 0.000000e+000 0.000000e+000 -1.000000e+000
    outer loop
      vertex   -1.367099e+002 4.699950e+001 -1.110223e-015
      vertex   -1.372325e+002 4.702689e+001 -1.110223e-015
      vertex   -1.417099e+002 5.199950e+001 -1.110223e-015
    endloop
  endfacet
  facet normal -0.000000e+000 -0.000000e+000 -1.000000e+000
    outer loop
      vertex   -1.417099e+002 5.199950e+001 -1.110223e-015
      vertex   -1.372325e+002 4.702689e+001 -1.110223e-015
      vertex   -1.377495e+002 4.710876e+001 -1.110223e-015
    endloop
  endfacet
  facet normal 0.000000e+000 0.000000e+000 -1.000000e+000
    outer loop
      vertex   -1.382550e+002 4.724422e+001 -1.110223e-015
      vertex   -1.417099e+002 5.199950e+001 -1.110223e-015
      vertex   -1.377495e+002 4.710876e+001 -1.110223e-015
    endloop
  endfacet
  facet normal 0.000000e+000 0.000000e+000 -1.000000e+000
    outer loop
      vertex   -1.382550e+002 4.724422e+001 -1.110223e-015
      vertex   -1.387436e+002 4.743177e+001 -1.110223e-015
      vertex   -1.417099e+002 5.199950e+001 -1.110223e-015
    endloop
  endfacet
  facet normal -0.000000e+000 -0.000000e+000 -1.000000e+000
    outer loop
      vertex   -1.417099e+002 5.199950e+001 -1.110223e-015
      vertex   -1.387436e+002 4.743177e+001 -1.110223e-015
      vertex   -1.392099e+002 4.766937e+001 -1.110223e-015
    endloop
  endfacet
  facet normal 0.000000e+000 0.000000e+000 -1.000000e+000
    outer loop
      vertex   -1.396488e+002 4.795442e+001 -1.110223e-015
      vertex   -1.417099e+002 5.199950e+001 -1.110223e-015
      vertex   -1.392099e+002 4.766937e+001 -1.110223e-015
    endloop
  endfacet
  facet normal 0.000000e+000 0.000000e+000 -1.000000e+000
    outer loop
      vertex   -1.396488e+002 4.795442e+001 -1.110223e-015
      vertex   -1.400556e+002 4.828378e+001 -1.110223e-015
      vertex   -1.417099e+002 5.199950e+001 -1.110223e-015
    endloop
  endfacet
  facet normal -0.000000e+000 -0.000000e+000 -1.000000e+000
    outer loop
      vertex   -1.417099e+002 5.199950e+001 -1.110223e-015
      vertex   -1.400556e+002 4.828378e+001 -1.110223e-015
      vertex   -1.404256e+002 4.865385e+001 -1.110223e-015
    endloop
  endfacet
  facet normal 0.000000e+000 0.000000e+000 -1.000000e+000
    outer loop
      vertex   -1.407550e+002 4.906057e+001 -1.110223e-015
      vertex   -1.417099e+002 5.199950e+001 -1.110223e-015
      vertex   -1.404256e+002 4.865385e+001 -1.110223e-015
    endloop
  endfacet
  facet normal 0.000000e+000 0.000000e+000 -1.000000e+000
    outer loop
      vertex   -1.407550e+002 4.906057e+001 -1.110223e-015
      vertex   -1.410400e+002 4.949950e+001 -1.110223e-015
      vertex   -1.417099e+002 5.199950e+001 -1.110223e-015
    endloop
  endfacet
  facet normal -0.000000e+000 -0.000000e+000 -1.000000e+000
    outer loop
      vertex   -1.417099e+002 5.199950e+001 -1.110223e-015
      vertex   -1.410400e+002 4.949950e+001 -1.110223e-015
      vertex   -1.412776e+002 4.996582e+001 -1.110223e-015
    endloop
  endfacet
  facet normal 0.000000e+000 0.000000e+000 -1.000000e+000
    outer loop
      vertex   -1.414652e+002 5.045442e+001 -1.110223e-015
      vertex   -1.417099e+002 5.199950e+001 -1.110223e-015
      vertex   -1.412776e+002 4.996582e+001 -1.110223e-015
    endloop
  endfacet
  facet normal 0.000000e+000 0.000000e+000 -1.000000e+000
    outer loop
      vertex   -1.414652e+002 5.045442e+001 -1.110223e-015
      vertex   -1.416006e+002 5.095994e+001 -1.110223e-015
      vertex   -1.417099e+002 5.199950e+001 -1.110223e-015
    endloop
  endfacet
  facet normal -0.000000e+000 -0.000000e+000 -1.000000e+000
    outer loop
      vertex   -1.417099e+002 5.199950e+001 -1.110223e-015
      vertex   -1.416006e+002 5.095994e+001 -1.110223e-015
      vertex   -1.416825e+002 5.147686e+001 -1.110223e-015
    endloop
  endfacet
  facet normal 9.993007e-001 -3.739119e-002 0.000000e+000
    outer loop
      vertex   -1.147099e+002 5.699950e+001 3.000000e+000
      vertex   -1.147379e+002 5.625220e+001 3.000000e+000
      vertex   -1.147099e+002 5.699950e+001 -1.110223e-015
    endloop
  endfacet
  facet normal 9.993007e-001 -3.739119e-002 -8.856014e-017
    outer loop
      vertex   -1.147099e+002 5.699950e+001 -1.110223e-015
      vertex   -1.147379e+002 5.625220e+001 3.000000e+000
      vertex   -1.147379e+002 5.625220e+001 -1.110223e-015
    endloop
  endfacet
  facet normal 9.937122e-001 -1.119645e-001 -2.651852e-016
    outer loop
      vertex   -1.147379e+002 5.625220e+001 -1.110223e-015
      vertex   -1.147379e+002 5.625220e+001 3.000000e+000
      vertex   -1.148216e+002 5.550908e+001 3.000000e+000
    endloop
  endfacet
  facet normal 9.825665e-001 -1.859116e-001 -4.403271e-016
    outer loop
      vertex   -1.148216e+002 5.550908e+001 -1.110223e-015
      vertex   -1.148216e+002 5.550908e+001 3.000000e+000
      vertex   -1.149606e+002 5.477429e+001 3.000000e+000
    endloop
  endfacet
  facet normal 9.659258e-001 -2.588190e-001 0.000000e+000
    outer loop
      vertex   -1.149606e+002 5.477429e+001 -1.110223e-015
      vertex   -1.149606e+002 5.477429e+001 3.000000e+000
      vertex   -1.151542e+002 5.405195e+001 3.000000e+000
    endloop
  endfacet
  facet normal 9.438833e-001 -3.302791e-001 0.000000e+000
    outer loop
      vertex   -1.151542e+002 5.405195e+001 -1.110223e-015
      vertex   -1.151542e+002 5.405195e+001 3.000000e+000
      vertex   -1.154012e+002 5.334609e+001 3.000000e+000
    endloop
  endfacet
  facet normal 9.165623e-001 -3.998920e-001 0.000000e+000
    outer loop
      vertex   -1.154012e+002 5.334609e+001 -1.110223e-015
      vertex   -1.154012e+002 5.334609e+001 3.000000e+000
      vertex   -1.157002e+002 5.266066e+001 3.000000e+000
    endloop
  endfacet
  facet normal 8.841154e-001 -4.672686e-001 7.269309e-015
    outer loop
      vertex   -1.157002e+002 5.266066e+001 -1.110223e-015
      vertex   -1.157002e+002 5.266066e+001 3.000000e+000
      vertex   -1.160496e+002 5.199950e+001 3.000000e+000
    endloop
  endfacet
  facet normal 8.467242e-001 -5.320321e-001 0.000000e+000
    outer loop
      vertex   -1.160496e+002 5.199950e+001 -1.110223e-015
      vertex   -1.160496e+002 5.199950e+001 3.000000e+000
      vertex   -1.164475e+002 5.136630e+001 3.000000e+000
    endloop
  endfacet
  facet normal 8.045978e-001 -5.938202e-001 0.000000e+000
    outer loop
      vertex   -1.164475e+002 5.136630e+001 -1.110223e-015
      vertex   -1.164475e+002 5.136630e+001 3.000000e+000
      vertex   -1.168916e+002 5.076460e+001 3.000000e+000
    endloop
  endfacet
  facet normal 7.579717e-001 -6.522874e-001 -3.089854e-015
    outer loop
      vertex   -1.168916e+002 5.076460e+001 -1.110223e-015
      vertex   -1.168916e+002 5.076460e+001 3.000000e+000
      vertex   -1.173794e+002 5.019777e+001 -1.110223e-015
    endloop
  endfacet
  facet normal 8.045978e-001 -5.938202e-001 -2.820749e-015
    outer loop
      vertex   -1.168916e+002 5.076460e+001 -1.110223e-015
      vertex   -1.164475e+002 5.136630e+001 -1.110223e-015
      vertex   -1.168916e+002 5.076460e+001 3.000000e+000
    endloop
  endfacet
  facet normal 9.937122e-001 -1.119645e-001 -2.651852e-016
    outer loop
      vertex   -1.147379e+002 5.625220e+001 -1.110223e-015
      vertex   -1.148216e+002 5.550908e+001 3.000000e+000
      vertex   -1.148216e+002 5.550908e+001 -1.110223e-015
    endloop
  endfacet
  facet normal 9.825665e-001 -1.859116e-001 0.000000e+000
    outer loop
      vertex   -1.148216e+002 5.550908e+001 -1.110223e-015
      vertex   -1.149606e+002 5.477429e+001 3.000000e+000
      vertex   -1.149606e+002 5.477429e+001 -1.110223e-015
    endloop
  endfacet
  facet normal 9.659258e-001 -2.588190e-001 0.000000e+000
    outer loop
      vertex   -1.149606e+002 5.477429e+001 -1.110223e-015
      vertex   -1.151542e+002 5.405195e+001 3.000000e+000
      vertex   -1.151542e+002 5.405195e+001 -1.110223e-015
    endloop
  endfacet
  facet normal 9.438833e-001 -3.302791e-001 0.000000e+000
    outer loop
      vertex   -1.151542e+002 5.405195e+001 -1.110223e-015
      vertex   -1.154012e+002 5.334609e+001 3.000000e+000
      vertex   -1.154012e+002 5.334609e+001 -1.110223e-015
    endloop
  endfacet
  facet normal 9.165623e-001 -3.998920e-001 7.736287e-015
    outer loop
      vertex   -1.154012e+002 5.334609e+001 -1.110223e-015
      vertex   -1.157002e+002 5.266066e+001 3.000000e+000
      vertex   -1.157002e+002 5.266066e+001 -1.110223e-015
    endloop
  endfacet
  facet normal 8.841154e-001 -4.672686e-001 0.000000e+000
    outer loop
      vertex   -1.157002e+002 5.266066e+001 -1.110223e-015
      vertex   -1.160496e+002 5.199950e+001 3.000000e+000
      vertex   -1.160496e+002 5.199950e+001 -1.110223e-015
    endloop
  endfacet
  facet normal 8.467242e-001 -5.320321e-001 0.000000e+000
    outer loop
      vertex   -1.160496e+002 5.199950e+001 -1.110223e-015
      vertex   -1.164475e+002 5.136630e+001 3.000000e+000
      vertex   -1.164475e+002 5.136630e+001 -1.110223e-015
    endloop
  endfacet
  facet normal 7.579717e-001 -6.522874e-001 3.590475e-015
    outer loop
      vertex   -1.168916e+002 5.076460e+001 3.000000e+000
      vertex   -1.173794e+002 5.019777e+001 3.000000e+000
      vertex   -1.173794e+002 5.019777e+001 -1.110223e-015
    endloop
  endfacet
  facet normal 7.071068e-001 -7.071068e-001 3.349531e-015
    outer loop
      vertex   -1.173794e+002 5.019777e+001 -1.110223e-015
      vertex   -1.173794e+002 5.019777e+001 3.000000e+000
      vertex   -1.179082e+002 4.966898e+001 -1.110223e-015
    endloop
  endfacet
  facet normal 7.071068e-001 -7.071068e-001 3.365105e-015
    outer loop
      vertex   -1.179082e+002 4.966898e+001 -1.110223e-015
      vertex   -1.173794e+002 5.019777e+001 3.000000e+000
      vertex   -1.179082e+002 4.966898e+001 3.000000e+000
    endloop
  endfacet
  facet normal 6.522874e-001 -7.579717e-001 -1.781526e-015
    outer loop
      vertex   -1.184750e+002 4.918119e+001 -1.110223e-015
      vertex   -1.179082e+002 4.966898e+001 3.000000e+000
      vertex   -1.184750e+002 4.918119e+001 3.000000e+000
    endloop
  endfacet
  facet normal 5.938202e-001 -8.045978e-001 -1.905670e-015
    outer loop
      vertex   -1.190767e+002 4.873711e+001 3.000000e+000
      vertex   -1.184750e+002 4.918119e+001 -1.110223e-015
      vertex   -1.184750e+002 4.918119e+001 3.000000e+000
    endloop
  endfacet
  facet normal 5.938202e-001 -8.045978e-001 0.000000e+000
    outer loop
      vertex   -1.190767e+002 4.873711e+001 3.000000e+000
      vertex   -1.190767e+002 4.873711e+001 -1.110223e-015
      vertex   -1.184750e+002 4.918119e+001 -1.110223e-015
    endloop
  endfacet
  facet normal 5.320321e-001 -8.467242e-001 0.000000e+000
    outer loop
      vertex   -1.190767e+002 4.873711e+001 3.000000e+000
      vertex   -1.197099e+002 4.833925e+001 3.000000e+000
      vertex   -1.190767e+002 4.873711e+001 -1.110223e-015
    endloop
  endfacet
  facet normal 5.320321e-001 -8.467242e-001 0.000000e+000
    outer loop
      vertex   -1.190767e+002 4.873711e+001 -1.110223e-015
      vertex   -1.197099e+002 4.833925e+001 3.000000e+000
      vertex   -1.197099e+002 4.833925e+001 -1.110223e-015
    endloop
  endfacet
  facet normal 4.672686e-001 -8.841154e-001 0.000000e+000
    outer loop
      vertex   -1.197099e+002 4.833925e+001 -1.110223e-015
      vertex   -1.197099e+002 4.833925e+001 3.000000e+000
      vertex   -1.203711e+002 4.798981e+001 3.000000e+000
    endloop
  endfacet
  facet normal 3.998920e-001 -9.165623e-001 -2.447442e-015
    outer loop
      vertex   -1.203711e+002 4.798981e+001 -1.110223e-015
      vertex   -1.203711e+002 4.798981e+001 3.000000e+000
      vertex   -1.210565e+002 4.769076e+001 3.000000e+000
    endloop
  endfacet
  facet normal 3.302791e-001 -9.438833e-001 0.000000e+000
    outer loop
      vertex   -1.210565e+002 4.769076e+001 -1.110223e-015
      vertex   -1.210565e+002 4.769076e+001 3.000000e+000
      vertex   -1.217623e+002 4.744377e+001 3.000000e+000
    endloop
  endfacet
  facet normal 2.588190e-001 -9.659258e-001 0.000000e+000
    outer loop
      vertex   -1.217623e+002 4.744377e+001 -1.110223e-015
      vertex   -1.217623e+002 4.744377e+001 3.000000e+000
      vertex   -1.224847e+002 4.725022e+001 3.000000e+000
    endloop
  endfacet
  facet normal 1.859116e-001 -9.825665e-001 0.000000e+000
    outer loop
      vertex   -1.224847e+002 4.725022e+001 -1.110223e-015
      vertex   -1.224847e+002 4.725022e+001 3.000000e+000
      vertex   -1.232195e+002 4.711119e+001 3.000000e+000
    endloop
  endfacet
  facet normal 1.119645e-001 -9.937122e-001 -4.707167e-015
    outer loop
      vertex   -1.232195e+002 4.711119e+001 -1.110223e-015
      vertex   -1.232195e+002 4.711119e+001 3.000000e+000
      vertex   -1.239626e+002 4.702746e+001 3.000000e+000
    endloop
  endfacet
  facet normal 3.739119e-002 -9.993007e-001 2.366820e-015
    outer loop
      vertex   -1.239626e+002 4.702746e+001 -1.110223e-015
      vertex   -1.239626e+002 4.702746e+001 3.000000e+000
      vertex   -1.247099e+002 4.699950e+001 3.000000e+000
    endloop
  endfacet
  facet normal 3.739119e-002 -9.993007e-001 2.366089e-015
    outer loop
      vertex   -1.247099e+002 4.699950e+001 -1.110223e-015
      vertex   -1.239626e+002 4.702746e+001 -1.110223e-015
      vertex   -1.247099e+002 4.699950e+001 3.000000e+000
    endloop
  endfacet
  facet normal 6.522874e-001 -7.579717e-001 3.089854e-015
    outer loop
      vertex   -1.179082e+002 4.966898e+001 -1.110223e-015
      vertex   -1.179082e+002 4.966898e+001 3.000000e+000
      vertex   -1.184750e+002 4.918119e+001 -1.110223e-015
    endloop
  endfacet
  facet normal 4.672686e-001 -8.841154e-001 -1.974583e-015
    outer loop
      vertex   -1.197099e+002 4.833925e+001 -1.110223e-015
      vertex   -1.203711e+002 4.798981e+001 3.000000e+000
      vertex   -1.203711e+002 4.798981e+001 -1.110223e-015
    endloop
  endfacet
  facet normal 3.998920e-001 -9.165623e-001 0.000000e+000
    outer loop
      vertex   -1.203711e+002 4.798981e+001 -1.110223e-015
      vertex   -1.210565e+002 4.769076e+001 3.000000e+000
      vertex   -1.210565e+002 4.769076e+001 -1.110223e-015
    endloop
  endfacet
  facet normal 3.302791e-001 -9.438833e-001 0.000000e+000
    outer loop
      vertex   -1.210565e+002 4.769076e+001 -1.110223e-015
      vertex   -1.217623e+002 4.744377e+001 3.000000e+000
      vertex   -1.217623e+002 4.744377e+001 -1.110223e-015
    endloop
  endfacet
  facet normal 2.588190e-001 -9.659258e-001 0.000000e+000
    outer loop
      vertex   -1.217623e+002 4.744377e+001 -1.110223e-015
      vertex   -1.224847e+002 4.725022e+001 3.000000e+000
      vertex   -1.224847e+002 4.725022e+001 -1.110223e-015
    endloop
  endfacet
  facet normal 1.859116e-001 -9.825665e-001 -4.654370e-015
    outer loop
      vertex   -1.224847e+002 4.725022e+001 -1.110223e-015
      vertex   -1.232195e+002 4.711119e+001 3.000000e+000
      vertex   -1.232195e+002 4.711119e+001 -1.110223e-015
    endloop
  endfacet
  facet normal 1.119645e-001 -9.937122e-001 2.353583e-015
    outer loop
      vertex   -1.232195e+002 4.711119e+001 -1.110223e-015
      vertex   -1.239626e+002 4.702746e+001 3.000000e+000
      vertex   -1.239626e+002 4.702746e+001 -1.110223e-015
    endloop
  endfacet
  facet normal -1.000000e+000 3.730233e-014 0.000000e+000
    outer loop
      vertex   -1.417099e+002 5.199950e+001 3.000000e+000
      vertex   -1.417099e+002 6.800000e+001 3.000000e+000
      vertex   -1.417099e+002 5.199950e+001 -1.110223e-015
    endloop
  endfacet
  facet normal -1.000000e+000 3.730233e-014 0.000000e+000
    outer loop
      vertex   -1.417099e+002 5.199950e+001 -1.110223e-015
      vertex   -1.417099e+002 6.800000e+001 3.000000e+000
      vertex   -1.417099e+002 6.800000e+001 -1.110223e-015
    endloop
  endfacet
  facet normal -0.000000e+000 1.000000e+000 0.000000e+000
    outer loop
      vertex   -1.417099e+002 6.800000e+001 3.000000e+000
      vertex   -1.367099e+002 6.800000e+001 3.000000e+000
      vertex   -1.417099e+002 6.800000e+001 -1.110223e-015
    endloop
  endfacet
  facet normal -0.000000e+000 1.000000e+000 0.000000e+000
    outer loop
      vertex   -1.417099e+002 6.800000e+001 -1.110223e-015
      vertex   -1.367099e+002 6.800000e+001 3.000000e+000
      vertex   -1.367099e+002 6.800000e+001 -1.110223e-015
    endloop
  endfacet
  facet normal -1.000000e+000 -3.522443e-015 0.000000e+000
    outer loop
      vertex   -1.367099e+002 6.800000e+001 3.000000e+000
      vertex   -1.367099e+002 8.413750e+001 3.000000e+000
      vertex   -1.367099e+002 6.800000e+001 -1.110223e-015
    endloop
  endfacet
  facet normal -1.000000e+000 -3.522443e-015 -0.000000e+000
    outer loop
      vertex   -1.367099e+002 6.800000e+001 -1.110223e-015
      vertex   -1.367099e+002 8.413750e+001 3.000000e+000
      vertex   -1.367099e+002 8.413750e+001 -1.110223e-015
    endloop
  endfacet
  facet normal -9.974521e-001 7.133918e-002 0.000000e+000
    outer loop
      vertex   -1.196783e+002 5.160863e+001 -1.110223e-015
      vertex   -1.196783e+002 5.160863e+001 3.000000e+000
      vertex   -1.196503e+002 5.200000e+001 -1.110223e-015
    endloop
  endfacet
  facet normal -9.771469e-001 2.125653e-001 0.000000e+000
    outer loop
      vertex   -1.196783e+002 5.160863e+001 -1.110223e-015
      vertex   -1.197617e+002 5.122524e+001 3.000000e+000
      vertex   -1.196783e+002 5.160863e+001 3.000000e+000
    endloop
  endfacet
  facet normal -9.771469e-001 2.125653e-001 0.000000e+000
    outer loop
      vertex   -1.196783e+002 5.160863e+001 -1.110223e-015
      vertex   -1.197617e+002 5.122524e+001 -1.110223e-015
      vertex   -1.197617e+002 5.122524e+001 3.000000e+000
    endloop
  endfacet
  facet normal -9.369497e-001 3.494642e-001 0.000000e+000
    outer loop
      vertex   -1.197617e+002 5.122524e+001 3.000000e+000
      vertex   -1.197617e+002 5.122524e+001 -1.110223e-015
      vertex   -1.198988e+002 5.085761e+001 3.000000e+000
    endloop
  endfacet
  facet normal -9.369497e-001 3.494642e-001 0.000000e+000
    outer loop
      vertex   -1.198988e+002 5.085761e+001 3.000000e+000
      vertex   -1.197617e+002 5.122524e+001 -1.110223e-015
      vertex   -1.198988e+002 5.085761e+001 -1.110223e-015
    endloop
  endfacet
  facet normal -8.776790e-001 4.792490e-001 0.000000e+000
    outer loop
      vertex   -1.200869e+002 5.051324e+001 3.000000e+000
      vertex   -1.198988e+002 5.085761e+001 -1.110223e-015
      vertex   -1.200869e+002 5.051324e+001 -1.110223e-015
    endloop
  endfacet
  facet normal -8.005412e-001 5.992777e-001 0.000000e+000
    outer loop
      vertex   -1.203220e+002 5.019913e+001 3.000000e+000
      vertex   -1.200869e+002 5.051324e+001 -1.110223e-015
      vertex   -1.203220e+002 5.019913e+001 -1.110223e-015
    endloop
  endfacet
  facet normal -7.071068e-001 7.071068e-001 0.000000e+000
    outer loop
      vertex   -1.205994e+002 4.992169e+001 3.000000e+000
      vertex   -1.203220e+002 5.019913e+001 -1.110223e-015
      vertex   -1.205994e+002 4.992169e+001 -1.110223e-015
    endloop
  endfacet
  facet normal -5.992777e-001 8.005412e-001 -1.898165e-015
    outer loop
      vertex   -1.209135e+002 4.968655e+001 3.000000e+000
      vertex   -1.205994e+002 4.992169e+001 -1.110223e-015
      vertex   -1.209135e+002 4.968655e+001 -1.110223e-015
    endloop
  endfacet
  facet normal -4.792490e-001 8.776790e-001 0.000000e+000
    outer loop
      vertex   -1.212579e+002 4.949851e+001 3.000000e+000
      vertex   -1.209135e+002 4.968655e+001 -1.110223e-015
      vertex   -1.212579e+002 4.949851e+001 -1.110223e-015
    endloop
  endfacet
  facet normal -3.494642e-001 9.369497e-001 0.000000e+000
    outer loop
      vertex   -1.216255e+002 4.936139e+001 3.000000e+000
      vertex   -1.212579e+002 4.949851e+001 -1.110223e-015
      vertex   -1.216255e+002 4.936139e+001 -1.110223e-015
    endloop
  endfacet
  facet normal -2.125653e-001 9.771469e-001 0.000000e+000
    outer loop
      vertex   -1.220089e+002 4.927799e+001 3.000000e+000
      vertex   -1.216255e+002 4.936139e+001 -1.110223e-015
      vertex   -1.220089e+002 4.927799e+001 -1.110223e-015
    endloop
  endfacet
  facet normal -7.133918e-002 9.974521e-001 0.000000e+000
    outer loop
      vertex   -1.224003e+002 4.925000e+001 3.000000e+000
      vertex   -1.220089e+002 4.927799e+001 -1.110223e-015
      vertex   -1.224003e+002 4.925000e+001 -1.110223e-015
    endloop
  endfacet
  facet normal 7.133918e-002 9.974521e-001 0.000000e+000
    outer loop
      vertex   -1.227917e+002 4.927799e+001 3.000000e+000
      vertex   -1.224003e+002 4.925000e+001 -1.110223e-015
      vertex   -1.227917e+002 4.927799e+001 -1.110223e-015
    endloop
  endfacet
  facet normal 2.125653e-001 9.771469e-001 0.000000e+000
    outer loop
      vertex   -1.231751e+002 4.936139e+001 3.000000e+000
      vertex   -1.227917e+002 4.927799e+001 -1.110223e-015
      vertex   -1.231751e+002 4.936139e+001 -1.110223e-015
    endloop
  endfacet
  facet normal 3.494642e-001 9.369497e-001 0.000000e+000
    outer loop
      vertex   -1.235427e+002 4.949851e+001 3.000000e+000
      vertex   -1.231751e+002 4.936139e+001 -1.110223e-015
      vertex   -1.235427e+002 4.949851e+001 -1.110223e-015
    endloop
  endfacet
  facet normal 4.792490e-001 8.776790e-001 0.000000e+000
    outer loop
      vertex   -1.238871e+002 4.968655e+001 3.000000e+000
      vertex   -1.235427e+002 4.949851e+001 -1.110223e-015
      vertex   -1.238871e+002 4.968655e+001 -1.110223e-015
    endloop
  endfacet
  facet normal 5.992777e-001 8.005412e-001 0.000000e+000
    outer loop
      vertex   -1.242012e+002 4.992169e+001 3.000000e+000
      vertex   -1.238871e+002 4.968655e+001 -1.110223e-015
      vertex   -1.242012e+002 4.992169e+001 -1.110223e-015
    endloop
  endfacet
  facet normal 7.071068e-001 7.071068e-001 0.000000e+000
    outer loop
      vertex   -1.244786e+002 5.019913e+001 3.000000e+000
      vertex   -1.242012e+002 4.992169e+001 -1.110223e-015
      vertex   -1.244786e+002 5.019913e+001 -1.110223e-015
    endloop
  endfacet
  facet normal 8.005412e-001 5.992777e-001 0.000000e+000
    outer loop
      vertex   -1.247137e+002 5.051324e+001 3.000000e+000
      vertex   -1.244786e+002 5.019913e+001 -1.110223e-015
      vertex   -1.247137e+002 5.051324e+001 -1.110223e-015
    endloop
  endfacet
  facet normal 8.776790e-001 4.792490e-001 4.150026e-015
    outer loop
      vertex   -1.249018e+002 5.085761e+001 3.000000e+000
      vertex   -1.247137e+002 5.051324e+001 -1.110223e-015
      vertex   -1.249018e+002 5.085761e+001 -1.110223e-015
    endloop
  endfacet
  facet normal 9.369497e-001 3.494642e-001 0.000000e+000
    outer loop
      vertex   -1.250389e+002 5.122524e+001 3.000000e+000
      vertex   -1.249018e+002 5.085761e+001 -1.110223e-015
      vertex   -1.250389e+002 5.122524e+001 -1.110223e-015
    endloop
  endfacet
  facet normal 9.771469e-001 2.125653e-001 0.000000e+000
    outer loop
      vertex   -1.251223e+002 5.160863e+001 3.000000e+000
      vertex   -1.250389e+002 5.122524e+001 -1.110223e-015
      vertex   -1.251223e+002 5.160863e+001 -1.110223e-015
    endloop
  endfacet
  facet normal 9.974521e-001 7.133918e-002 0.000000e+000
    outer loop
      vertex   -1.251503e+002 5.200000e+001 3.000000e+000
      vertex   -1.251223e+002 5.160863e+001 -1.110223e-015
      vertex   -1.251503e+002 5.200000e+001 -1.110223e-015
    endloop
  endfacet
  facet normal 9.974521e-001 -7.133918e-002 0.000000e+000
    outer loop
      vertex   -1.251223e+002 5.239137e+001 3.000000e+000
      vertex   -1.251503e+002 5.200000e+001 -1.110223e-015
      vertex   -1.251223e+002 5.239137e+001 -1.110223e-015
    endloop
  endfacet
  facet normal 9.771469e-001 -2.125653e-001 0.000000e+000
    outer loop
      vertex   -1.250389e+002 5.277476e+001 3.000000e+000
      vertex   -1.251223e+002 5.239137e+001 -1.110223e-015
      vertex   -1.250389e+002 5.277476e+001 -1.110223e-015
    endloop
  endfacet
  facet normal 9.369497e-001 -3.494642e-001 -4.438877e-015
    outer loop
      vertex   -1.249018e+002 5.314239e+001 3.000000e+000
      vertex   -1.250389e+002 5.277476e+001 -1.110223e-015
      vertex   -1.249018e+002 5.314239e+001 -1.110223e-015
    endloop
  endfacet
  facet normal 8.776790e-001 -4.792490e-001 0.000000e+000
    outer loop
      vertex   -1.247137e+002 5.348676e+001 3.000000e+000
      vertex   -1.249018e+002 5.314239e+001 -1.110223e-015
      vertex   -1.247137e+002 5.348676e+001 -1.110223e-015
    endloop
  endfacet
  facet normal 8.005412e-001 -5.992777e-001 0.000000e+000
    outer loop
      vertex   -1.244786e+002 5.380087e+001 3.000000e+000
      vertex   -1.247137e+002 5.348676e+001 -1.110223e-015
      vertex   -1.244786e+002 5.380087e+001 -1.110223e-015
    endloop
  endfacet
  facet normal 7.071068e-001 -7.071068e-001 0.000000e+000
    outer loop
      vertex   -1.242012e+002 5.407831e+001 3.000000e+000
      vertex   -1.244786e+002 5.380087e+001 -1.110223e-015
      vertex   -1.242012e+002 5.407831e+001 -1.110223e-015
    endloop
  endfacet
  facet normal 5.992777e-001 -8.005412e-001 0.000000e+000
    outer loop
      vertex   -1.238871e+002 5.431345e+001 3.000000e+000
      vertex   -1.242012e+002 5.407831e+001 -1.110223e-015
      vertex   -1.238871e+002 5.431345e+001 -1.110223e-015
    endloop
  endfacet
  facet normal 4.792490e-001 -8.776790e-001 0.000000e+000
    outer loop
      vertex   -1.235427e+002 5.450149e+001 3.000000e+000
      vertex   -1.238871e+002 5.431345e+001 -1.110223e-015
      vertex   -1.235427e+002 5.450149e+001 -1.110223e-015
    endloop
  endfacet
  facet normal 3.494642e-001 -9.369497e-001 0.000000e+000
    outer loop
      vertex   -1.231751e+002 5.463861e+001 3.000000e+000
      vertex   -1.235427e+002 5.450149e+001 -1.110223e-015
      vertex   -1.231751e+002 5.463861e+001 -1.110223e-015
    endloop
  endfacet
  facet normal 2.125653e-001 -9.771469e-001 0.000000e+000
    outer loop
      vertex   -1.227917e+002 5.472201e+001 3.000000e+000
      vertex   -1.231751e+002 5.463861e+001 -1.110223e-015
      vertex   -1.227917e+002 5.472201e+001 -1.110223e-015
    endloop
  endfacet
  facet normal 7.133918e-002 -9.974521e-001 0.000000e+000
    outer loop
      vertex   -1.224003e+002 5.475000e+001 3.000000e+000
      vertex   -1.227917e+002 5.472201e+001 -1.110223e-015
      vertex   -1.224003e+002 5.475000e+001 -1.110223e-015
    endloop
  endfacet
  facet normal -7.133918e-002 -9.974521e-001 0.000000e+000
    outer loop
      vertex   -1.220089e+002 5.472201e+001 3.000000e+000
      vertex   -1.224003e+002 5.475000e+001 -1.110223e-015
      vertex   -1.220089e+002 5.472201e+001 -1.110223e-015
    endloop
  endfacet
  facet normal -2.125653e-001 -9.771469e-001 0.000000e+000
    outer loop
      vertex   -1.216255e+002 5.463861e+001 3.000000e+000
      vertex   -1.220089e+002 5.472201e+001 -1.110223e-015
      vertex   -1.216255e+002 5.463861e+001 -1.110223e-015
    endloop
  endfacet
  facet normal -3.494642e-001 -9.369497e-001 0.000000e+000
    outer loop
      vertex   -1.212579e+002 5.450149e+001 3.000000e+000
      vertex   -1.216255e+002 5.463861e+001 -1.110223e-015
      vertex   -1.212579e+002 5.450149e+001 -1.110223e-015
    endloop
  endfacet
  facet normal -4.792490e-001 -8.776790e-001 2.075013e-015
    outer loop
      vertex   -1.209135e+002 5.431345e+001 3.000000e+000
      vertex   -1.212579e+002 5.450149e+001 -1.110223e-015
      vertex   -1.209135e+002 5.431345e+001 -1.110223e-015
    endloop
  endfacet
  facet normal -5.992777e-001 -8.005412e-001 0.000000e+000
    outer loop
      vertex   -1.205994e+002 5.407831e+001 3.000000e+000
      vertex   -1.209135e+002 5.431345e+001 -1.110223e-015
      vertex   -1.205994e+002 5.407831e+001 -1.110223e-015
    endloop
  endfacet
  facet normal -7.071068e-001 -7.071068e-001 0.000000e+000
    outer loop
      vertex   -1.203220e+002 5.380087e+001 3.000000e+000
      vertex   -1.205994e+002 5.407831e+001 -1.110223e-015
      vertex   -1.203220e+002 5.380087e+001 -1.110223e-015
    endloop
  endfacet
  facet normal -8.005412e-001 -5.992777e-001 0.000000e+000
    outer loop
      vertex   -1.200869e+002 5.348676e+001 3.000000e+000
      vertex   -1.203220e+002 5.380087e+001 -1.110223e-015
      vertex   -1.200869e+002 5.348676e+001 -1.110223e-015
    endloop
  endfacet
  facet normal -8.776790e-001 -4.792490e-001 0.000000e+000
    outer loop
      vertex   -1.198988e+002 5.314239e+001 3.000000e+000
      vertex   -1.200869e+002 5.348676e+001 -1.110223e-015
      vertex   -1.198988e+002 5.314239e+001 -1.110223e-015
    endloop
  endfacet
  facet normal -9.369497e-001 -3.494642e-001 0.000000e+000
    outer loop
      vertex   -1.197617e+002 5.277476e+001 3.000000e+000
      vertex   -1.198988e+002 5.314239e+001 -1.110223e-015
      vertex   -1.197617e+002 5.277476e+001 -1.110223e-015
    endloop
  endfacet
  facet normal -9.771469e-001 -2.125653e-001 0.000000e+000
    outer loop
      vertex   -1.196783e+002 5.239137e+001 3.000000e+000
      vertex   -1.197617e+002 5.277476e+001 -1.110223e-015
      vertex   -1.196783e+002 5.239137e+001 -1.110223e-015
    endloop
  endfacet
  facet normal -9.974521e-001 -7.133918e-002 0.000000e+000
    outer loop
      vertex   -1.196503e+002 5.200000e+001 3.000000e+000
      vertex   -1.196783e+002 5.239137e+001 -1.110223e-015
      vertex   -1.196503e+002 5.200000e+001 -1.110223e-015
    endloop
  endfacet
  facet normal -9.974521e-001 7.133918e-002 0.000000e+000
    outer loop
      vertex   -1.196783e+002 5.160863e+001 3.000000e+000
      vertex   -1.196503e+002 5.200000e+001 3.000000e+000
      vertex   -1.196503e+002 5.200000e+001 -1.110223e-015
    endloop
  endfacet
  facet normal -8.776790e-001 4.792490e-001 0.000000e+000
    outer loop
      vertex   -1.198988e+002 5.085761e+001 3.000000e+000
      vertex   -1.198988e+002 5.085761e+001 -1.110223e-015
      vertex   -1.200869e+002 5.051324e+001 3.000000e+000
    endloop
  endfacet
  facet normal -8.005412e-001 5.992777e-001 0.000000e+000
    outer loop
      vertex   -1.200869e+002 5.051324e+001 3.000000e+000
      vertex   -1.200869e+002 5.051324e+001 -1.110223e-015
      vertex   -1.203220e+002 5.019913e+001 3.000000e+000
    endloop
  endfacet
  facet normal -7.071068e-001 7.071068e-001 0.000000e+000
    outer loop
      vertex   -1.203220e+002 5.019913e+001 3.000000e+000
      vertex   -1.203220e+002 5.019913e+001 -1.110223e-015
      vertex   -1.205994e+002 4.992169e+001 3.000000e+000
    endloop
  endfacet
  facet normal -5.992777e-001 8.005412e-001 0.000000e+000
    outer loop
      vertex   -1.205994e+002 4.992169e+001 3.000000e+000
      vertex   -1.205994e+002 4.992169e+001 -1.110223e-015
      vertex   -1.209135e+002 4.968655e+001 3.000000e+000
    endloop
  endfacet
  facet normal -4.792490e-001 8.776790e-001 -2.078761e-015
    outer loop
      vertex   -1.209135e+002 4.968655e+001 3.000000e+000
      vertex   -1.209135e+002 4.968655e+001 -1.110223e-015
      vertex   -1.212579e+002 4.949851e+001 3.000000e+000
    endloop
  endfacet
  facet normal -3.494642e-001 9.369497e-001 0.000000e+000
    outer loop
      vertex   -1.212579e+002 4.949851e+001 3.000000e+000
      vertex   -1.212579e+002 4.949851e+001 -1.110223e-015
      vertex   -1.216255e+002 4.936139e+001 3.000000e+000
    endloop
  endfacet
  facet normal -2.125653e-001 9.771469e-001 0.000000e+000
    outer loop
      vertex   -1.216255e+002 4.936139e+001 3.000000e+000
      vertex   -1.216255e+002 4.936139e+001 -1.110223e-015
      vertex   -1.220089e+002 4.927799e+001 3.000000e+000
    endloop
  endfacet
  facet normal -7.133918e-002 9.974521e-001 0.000000e+000
    outer loop
      vertex   -1.220089e+002 4.927799e+001 3.000000e+000
      vertex   -1.220089e+002 4.927799e+001 -1.110223e-015
      vertex   -1.224003e+002 4.925000e+001 3.000000e+000
    endloop
  endfacet
  facet normal 7.133918e-002 9.974521e-001 0.000000e+000
    outer loop
      vertex   -1.224003e+002 4.925000e+001 3.000000e+000
      vertex   -1.224003e+002 4.925000e+001 -1.110223e-015
      vertex   -1.227917e+002 4.927799e+001 3.000000e+000
    endloop
  endfacet
  facet normal 2.125653e-001 9.771469e-001 0.000000e+000
    outer loop
      vertex   -1.227917e+002 4.927799e+001 3.000000e+000
      vertex   -1.227917e+002 4.927799e+001 -1.110223e-015
      vertex   -1.231751e+002 4.936139e+001 3.000000e+000
    endloop
  endfacet
  facet normal 3.494642e-001 9.369497e-001 0.000000e+000
    outer loop
      vertex   -1.231751e+002 4.936139e+001 3.000000e+000
      vertex   -1.231751e+002 4.936139e+001 -1.110223e-015
      vertex   -1.235427e+002 4.949851e+001 3.000000e+000
    endloop
  endfacet
  facet normal 4.792490e-001 8.776790e-001 0.000000e+000
    outer loop
      vertex   -1.235427e+002 4.949851e+001 3.000000e+000
      vertex   -1.235427e+002 4.949851e+001 -1.110223e-015
      vertex   -1.238871e+002 4.968655e+001 3.000000e+000
    endloop
  endfacet
  facet normal 5.992777e-001 8.005412e-001 0.000000e+000
    outer loop
      vertex   -1.238871e+002 4.968655e+001 3.000000e+000
      vertex   -1.238871e+002 4.968655e+001 -1.110223e-015
      vertex   -1.242012e+002 4.992169e+001 3.000000e+000
    endloop
  endfacet
  facet normal 7.071068e-001 7.071068e-001 0.000000e+000
    outer loop
      vertex   -1.242012e+002 4.992169e+001 3.000000e+000
      vertex   -1.242012e+002 4.992169e+001 -1.110223e-015
      vertex   -1.244786e+002 5.019913e+001 3.000000e+000
    endloop
  endfacet
  facet normal 8.005412e-001 5.992777e-001 0.000000e+000
    outer loop
      vertex   -1.244786e+002 5.019913e+001 3.000000e+000
      vertex   -1.244786e+002 5.019913e+001 -1.110223e-015
      vertex   -1.247137e+002 5.051324e+001 3.000000e+000
    endloop
  endfacet
  facet normal 8.776790e-001 4.792490e-001 0.000000e+000
    outer loop
      vertex   -1.247137e+002 5.051324e+001 3.000000e+000
      vertex   -1.247137e+002 5.051324e+001 -1.110223e-015
      vertex   -1.249018e+002 5.085761e+001 3.000000e+000
    endloop
  endfacet
  facet normal 9.369497e-001 3.494642e-001 4.438285e-015
    outer loop
      vertex   -1.249018e+002 5.085761e+001 3.000000e+000
      vertex   -1.249018e+002 5.085761e+001 -1.110223e-015
      vertex   -1.250389e+002 5.122524e+001 3.000000e+000
    endloop
  endfacet
  facet normal 9.771469e-001 2.125653e-001 0.000000e+000
    outer loop
      vertex   -1.250389e+002 5.122524e+001 3.000000e+000
      vertex   -1.250389e+002 5.122524e+001 -1.110223e-015
      vertex   -1.251223e+002 5.160863e+001 3.000000e+000
    endloop
  endfacet
  facet normal 9.974521e-001 7.133918e-002 0.000000e+000
    outer loop
      vertex   -1.251223e+002 5.160863e+001 3.000000e+000
      vertex   -1.251223e+002 5.160863e+001 -1.110223e-015
      vertex   -1.251503e+002 5.200000e+001 3.000000e+000
    endloop
  endfacet
  facet normal 9.974521e-001 -7.133918e-002 0.000000e+000
    outer loop
      vertex   -1.251503e+002 5.200000e+001 3.000000e+000
      vertex   -1.251503e+002 5.200000e+001 -1.110223e-015
      vertex   -1.251223e+002 5.239137e+001 3.000000e+000
    endloop
  endfacet
  facet normal 9.771469e-001 -2.125653e-001 0.000000e+000
    outer loop
      vertex   -1.251223e+002 5.239137e+001 3.000000e+000
      vertex   -1.251223e+002 5.239137e+001 -1.110223e-015
      vertex   -1.250389e+002 5.277476e+001 3.000000e+000
    endloop
  endfacet
  facet normal 9.369497e-001 -3.494642e-001 0.000000e+000
    outer loop
      vertex   -1.250389e+002 5.277476e+001 3.000000e+000
      vertex   -1.250389e+002 5.277476e+001 -1.110223e-015
      vertex   -1.249018e+002 5.314239e+001 3.000000e+000
    endloop
  endfacet
  facet normal 8.776790e-001 -4.792490e-001 -4.157523e-015
    outer loop
      vertex   -1.249018e+002 5.314239e+001 3.000000e+000
      vertex   -1.249018e+002 5.314239e+001 -1.110223e-015
      vertex   -1.247137e+002 5.348676e+001 3.000000e+000
    endloop
  endfacet
  facet normal 8.005412e-001 -5.992777e-001 0.000000e+000
    outer loop
      vertex   -1.247137e+002 5.348676e+001 3.000000e+000
      vertex   -1.247137e+002 5.348676e+001 -1.110223e-015
      vertex   -1.244786e+002 5.380087e+001 3.000000e+000
    endloop
  endfacet
  facet normal 7.071068e-001 -7.071068e-001 0.000000e+000
    outer loop
      vertex   -1.244786e+002 5.380087e+001 3.000000e+000
      vertex   -1.244786e+002 5.380087e+001 -1.110223e-015
      vertex   -1.242012e+002 5.407831e+001 3.000000e+000
    endloop
  endfacet
  facet normal 5.992777e-001 -8.005412e-001 0.000000e+000
    outer loop
      vertex   -1.242012e+002 5.407831e+001 3.000000e+000
      vertex   -1.242012e+002 5.407831e+001 -1.110223e-015
      vertex   -1.238871e+002 5.431345e+001 3.000000e+000
    endloop
  endfacet
  facet normal 4.792490e-001 -8.776790e-001 0.000000e+000
    outer loop
      vertex   -1.238871e+002 5.431345e+001 3.000000e+000
      vertex   -1.238871e+002 5.431345e+001 -1.110223e-015
      vertex   -1.235427e+002 5.450149e+001 3.000000e+000
    endloop
  endfacet
  facet normal 3.494642e-001 -9.369497e-001 0.000000e+000
    outer loop
      vertex   -1.235427e+002 5.450149e+001 3.000000e+000
      vertex   -1.235427e+002 5.450149e+001 -1.110223e-015
      vertex   -1.231751e+002 5.463861e+001 3.000000e+000
    endloop
  endfacet
  facet normal 2.125653e-001 -9.771469e-001 0.000000e+000
    outer loop
      vertex   -1.231751e+002 5.463861e+001 3.000000e+000
      vertex   -1.231751e+002 5.463861e+001 -1.110223e-015
      vertex   -1.227917e+002 5.472201e+001 3.000000e+000
    endloop
  endfacet
  facet normal 7.133918e-002 -9.974521e-001 0.000000e+000
    outer loop
      vertex   -1.227917e+002 5.472201e+001 3.000000e+000
      vertex   -1.227917e+002 5.472201e+001 -1.110223e-015
      vertex   -1.224003e+002 5.475000e+001 3.000000e+000
    endloop
  endfacet
  facet normal -7.133918e-002 -9.974521e-001 -0.000000e+000
    outer loop
      vertex   -1.224003e+002 5.475000e+001 3.000000e+000
      vertex   -1.224003e+002 5.475000e+001 -1.110223e-015
      vertex   -1.220089e+002 5.472201e+001 3.000000e+000
    endloop
  endfacet
  facet normal -2.125653e-001 -9.771469e-001 -0.000000e+000
    outer loop
      vertex   -1.220089e+002 5.472201e+001 3.000000e+000
      vertex   -1.220089e+002 5.472201e+001 -1.110223e-015
      vertex   -1.216255e+002 5.463861e+001 3.000000e+000
    endloop
  endfacet
  facet normal -3.494642e-001 -9.369497e-001 -0.000000e+000
    outer loop
      vertex   -1.216255e+002 5.463861e+001 3.000000e+000
      vertex   -1.216255e+002 5.463861e+001 -1.110223e-015
      vertex   -1.212579e+002 5.450149e+001 3.000000e+000
    endloop
  endfacet
  facet normal -4.792490e-001 -8.776790e-001 -0.000000e+000
    outer loop
      vertex   -1.212579e+002 5.450149e+001 3.000000e+000
      vertex   -1.212579e+002 5.450149e+001 -1.110223e-015
      vertex   -1.209135e+002 5.431345e+001 3.000000e+000
    endloop
  endfacet
  facet normal -5.992777e-001 -8.005412e-001 1.896063e-015
    outer loop
      vertex   -1.209135e+002 5.431345e+001 3.000000e+000
      vertex   -1.209135e+002 5.431345e+001 -1.110223e-015
      vertex   -1.205994e+002 5.407831e+001 3.000000e+000
    endloop
  endfacet
  facet normal -7.071068e-001 -7.071068e-001 -0.000000e+000
    outer loop
      vertex   -1.205994e+002 5.407831e+001 3.000000e+000
      vertex   -1.205994e+002 5.407831e+001 -1.110223e-015
      vertex   -1.203220e+002 5.380087e+001 3.000000e+000
    endloop
  endfacet
  facet normal -8.005412e-001 -5.992777e-001 -0.000000e+000
    outer loop
      vertex   -1.203220e+002 5.380087e+001 3.000000e+000
      vertex   -1.203220e+002 5.380087e+001 -1.110223e-015
      vertex   -1.200869e+002 5.348676e+001 3.000000e+000
    endloop
  endfacet
  facet normal -8.776790e-001 -4.792490e-001 -0.000000e+000
    outer loop
      vertex   -1.200869e+002 5.348676e+001 3.000000e+000
      vertex   -1.200869e+002 5.348676e+001 -1.110223e-015
      vertex   -1.198988e+002 5.314239e+001 3.000000e+000
    endloop
  endfacet
  facet normal -9.369497e-001 -3.494642e-001 -0.000000e+000
    outer loop
      vertex   -1.198988e+002 5.314239e+001 3.000000e+000
      vertex   -1.198988e+002 5.314239e+001 -1.110223e-015
      vertex   -1.197617e+002 5.277476e+001 3.000000e+000
    endloop
  endfacet
  facet normal -9.771469e-001 -2.125653e-001 -0.000000e+000
    outer loop
      vertex   -1.197617e+002 5.277476e+001 3.000000e+000
      vertex   -1.197617e+002 5.277476e+001 -1.110223e-015
      vertex   -1.196783e+002 5.239137e+001 3.000000e+000
    endloop
  endfacet
  facet normal -9.974521e-001 -7.133918e-002 -0.000000e+000
    outer loop
      vertex   -1.196783e+002 5.239137e+001 3.000000e+000
      vertex   -1.196783e+002 5.239137e+001 -1.110223e-015
      vertex   -1.196503e+002 5.200000e+001 3.000000e+000
    endloop
  endfacet
  facet normal 5.167584e-015 1.000000e+000 0.000000e+000
    outer loop
      vertex   -1.367099e+002 8.413750e+001 3.000000e+000
      vertex   -1.147099e+002 8.413750e+001 3.000000e+000
      vertex   -1.367099e+002 8.413750e+001 -1.110223e-015
    endloop
  endfacet
  facet normal 5.167584e-015 1.000000e+000 0.000000e+000
    outer loop
      vertex   -1.367099e+002 8.413750e+001 -1.110223e-015
      vertex   -1.147099e+002 8.413750e+001 3.000000e+000
      vertex   -1.147099e+002 8.413750e+001 -1.110223e-015
    endloop
  endfacet
  facet normal 1.000000e+000 -1.570955e-015 0.000000e+000
    outer loop
      vertex   -1.147099e+002 5.699950e+001 -1.110223e-015
      vertex   -1.147099e+002 8.413750e+001 -1.110223e-015
      vertex   -1.147099e+002 5.699950e+001 3.000000e+000
    endloop
  endfacet
  facet normal 1.000000e+000 -1.570955e-015 0.000000e+000
    outer loop
      vertex   -1.147099e+002 5.699950e+001 3.000000e+000
      vertex   -1.147099e+002 8.413750e+001 -1.110223e-015
      vertex   -1.147099e+002 8.413750e+001 3.000000e+000
    endloop
  endfacet
  facet normal -0.000000e+000 -0.000000e+000 1.000000e+000
    outer loop
      vertex   -1.416825e+002 5.147686e+001 3.000000e+000
      vertex   -1.416006e+002 5.095994e+001 3.000000e+000
      vertex   -1.417099e+002 5.199950e+001 3.000000e+000
    endloop
  endfacet
  facet normal 0.000000e+000 0.000000e+000 1.000000e+000
    outer loop
      vertex   -1.417099e+002 5.199950e+001 3.000000e+000
      vertex   -1.416006e+002 5.095994e+001 3.000000e+000
      vertex   -1.414652e+002 5.045442e+001 3.000000e+000
    endloop
  endfacet
  facet normal 0.000000e+000 0.000000e+000 1.000000e+000
    outer loop
      vertex   -1.412776e+002 4.996582e+001 3.000000e+000
      vertex   -1.417099e+002 5.199950e+001 3.000000e+000
      vertex   -1.414652e+002 5.045442e+001 3.000000e+000
    endloop
  endfacet
  facet normal -0.000000e+000 -0.000000e+000 1.000000e+000
    outer loop
      vertex   -1.412776e+002 4.996582e+001 3.000000e+000
      vertex   -1.410400e+002 4.949950e+001 3.000000e+000
      vertex   -1.417099e+002 5.199950e+001 3.000000e+000
    endloop
  endfacet
  facet normal 0.000000e+000 0.000000e+000 1.000000e+000
    outer loop
      vertex   -1.417099e+002 5.199950e+001 3.000000e+000
      vertex   -1.410400e+002 4.949950e+001 3.000000e+000
      vertex   -1.407550e+002 4.906057e+001 3.000000e+000
    endloop
  endfacet
  facet normal 0.000000e+000 0.000000e+000 1.000000e+000
    outer loop
      vertex   -1.404256e+002 4.865385e+001 3.000000e+000
      vertex   -1.417099e+002 5.199950e+001 3.000000e+000
      vertex   -1.407550e+002 4.906057e+001 3.000000e+000
    endloop
  endfacet
  facet normal -0.000000e+000 -0.000000e+000 1.000000e+000
    outer loop
      vertex   -1.404256e+002 4.865385e+001 3.000000e+000
      vertex   -1.400556e+002 4.828378e+001 3.000000e+000
      vertex   -1.417099e+002 5.199950e+001 3.000000e+000
    endloop
  endfacet
  facet normal 0.000000e+000 0.000000e+000 1.000000e+000
    outer loop
      vertex   -1.417099e+002 5.199950e+001 3.000000e+000
      vertex   -1.400556e+002 4.828378e+001 3.000000e+000
      vertex   -1.396488e+002 4.795442e+001 3.000000e+000
    endloop
  endfacet
  facet normal 0.000000e+000 0.000000e+000 1.000000e+000
    outer loop
      vertex   -1.392099e+002 4.766937e+001 3.000000e+000
      vertex   -1.417099e+002 5.199950e+001 3.000000e+000
      vertex   -1.396488e+002 4.795442e+001 3.000000e+000
    endloop
  endfacet
  facet normal -0.000000e+000 -0.000000e+000 1.000000e+000
    outer loop
      vertex   -1.392099e+002 4.766937e+001 3.000000e+000
      vertex   -1.387436e+002 4.743177e+001 3.000000e+000
      vertex   -1.417099e+002 5.199950e+001 3.000000e+000
    endloop
  endfacet
  facet normal 0.000000e+000 0.000000e+000 1.000000e+000
    outer loop
      vertex   -1.417099e+002 5.199950e+001 3.000000e+000
      vertex   -1.387436e+002 4.743177e+001 3.000000e+000
      vertex   -1.382550e+002 4.724422e+001 3.000000e+000
    endloop
  endfacet
  facet normal 0.000000e+000 0.000000e+000 1.000000e+000
    outer loop
      vertex   -1.377495e+002 4.710876e+001 3.000000e+000
      vertex   -1.417099e+002 5.199950e+001 3.000000e+000
      vertex   -1.382550e+002 4.724422e+001 3.000000e+000
    endloop
  endfacet
  facet normal -0.000000e+000 -0.000000e+000 1.000000e+000
    outer loop
      vertex   -1.377495e+002 4.710876e+001 3.000000e+000
      vertex   -1.372325e+002 4.702689e+001 3.000000e+000
      vertex   -1.417099e+002 5.199950e+001 3.000000e+000
    endloop
  endfacet
  facet normal 0.000000e+000 0.000000e+000 1.000000e+000
    outer loop
      vertex   -1.417099e+002 5.199950e+001 3.000000e+000
      vertex   -1.372325e+002 4.702689e+001 3.000000e+000
      vertex   -1.367099e+002 4.699950e+001 3.000000e+000
    endloop
  endfacet
  facet normal -0.000000e+000 0.000000e+000 1.000000e+000
    outer loop
      vertex   -1.367099e+002 6.800000e+001 3.000000e+000
      vertex   -1.367099e+002 4.699950e+001 3.000000e+000
      vertex   -1.250389e+002 5.277476e+001 3.000000e+000
    endloop
  endfacet
  facet normal 0.000000e+000 0.000000e+000 1.000000e+000
    outer loop
      vertex   -1.249018e+002 5.314239e+001 3.000000e+000
      vertex   -1.367099e+002 6.800000e+001 3.000000e+000
      vertex   -1.250389e+002 5.277476e+001 3.000000e+000
    endloop
  endfacet
  facet normal 0.000000e+000 -0.000000e+000 1.000000e+000
    outer loop
      vertex   -1.249018e+002 5.314239e+001 3.000000e+000
      vertex   -1.247137e+002 5.348676e+001 3.000000e+000
      vertex   -1.367099e+002 6.800000e+001 3.000000e+000
    endloop
  endfacet
  facet normal -0.000000e+000 0.000000e+000 1.000000e+000
    outer loop
      vertex   -1.367099e+002 6.800000e+001 3.000000e+000
      vertex   -1.247137e+002 5.348676e+001 3.000000e+000
      vertex   -1.244786e+002 5.380087e+001 3.000000e+000
    endloop
  endfacet
  facet normal 0.000000e+000 0.000000e+000 1.000000e+000
    outer loop
      vertex   -1.242012e+002 5.407831e+001 3.000000e+000
      vertex   -1.367099e+002 6.800000e+001 3.000000e+000
      vertex   -1.244786e+002 5.380087e+001 3.000000e+000
    endloop
  endfacet
  facet normal 0.000000e+000 -0.000000e+000 1.000000e+000
    outer loop
      vertex   -1.242012e+002 5.407831e+001 3.000000e+000
      vertex   -1.238871e+002 5.431345e+001 3.000000e+000
      vertex   -1.367099e+002 6.800000e+001 3.000000e+000
    endloop
  endfacet
  facet normal -0.000000e+000 0.000000e+000 1.000000e+000
    outer loop
      vertex   -1.367099e+002 6.800000e+001 3.000000e+000
      vertex   -1.238871e+002 5.431345e+001 3.000000e+000
      vertex   -1.235427e+002 5.450149e+001 3.000000e+000
    endloop
  endfacet
  facet normal 0.000000e+000 0.000000e+000 1.000000e+000
    outer loop
      vertex   -1.231751e+002 5.463861e+001 3.000000e+000
      vertex   -1.367099e+002 6.800000e+001 3.000000e+000
      vertex   -1.235427e+002 5.450149e+001 3.000000e+000
    endloop
  endfacet
  facet normal 0.000000e+000 -0.000000e+000 1.000000e+000
    outer loop
      vertex   -1.231751e+002 5.463861e+001 3.000000e+000
      vertex   -1.227917e+002 5.472201e+001 3.000000e+000
      vertex   -1.367099e+002 6.800000e+001 3.000000e+000
    endloop
  endfacet
  facet normal -0.000000e+000 0.000000e+000 1.000000e+000
    outer loop
      vertex   -1.367099e+002 6.800000e+001 3.000000e+000
      vertex   -1.227917e+002 5.472201e+001 3.000000e+000
      vertex   -1.147099e+002 8.413750e+001 3.000000e+000
    endloop
  endfacet
  facet normal -0.000000e+000 0.000000e+000 1.000000e+000
    outer loop
      vertex   -1.367099e+002 8.413750e+001 3.000000e+000
      vertex   -1.367099e+002 6.800000e+001 3.000000e+000
      vertex   -1.147099e+002 8.413750e+001 3.000000e+000
    endloop
  endfacet
  facet normal 0.000000e+000 0.000000e+000 1.000000e+000
    outer loop
      vertex   -1.247099e+002 4.699950e+001 3.000000e+000
      vertex   -1.250389e+002 5.122524e+001 3.000000e+000
      vertex   -1.367099e+002 4.699950e+001 3.000000e+000
    endloop
  endfacet
  facet normal 0.000000e+000 0.000000e+000 1.000000e+000
    outer loop
      vertex   -1.247099e+002 4.699950e+001 3.000000e+000
      vertex   -1.249018e+002 5.085761e+001 3.000000e+000
      vertex   -1.250389e+002 5.122524e+001 3.000000e+000
    endloop
  endfacet
  facet normal 0.000000e+000 0.000000e+000 1.000000e+000
    outer loop
      vertex   -1.247099e+002 4.699950e+001 3.000000e+000
      vertex   -1.247137e+002 5.051324e+001 3.000000e+000
      vertex   -1.249018e+002 5.085761e+001 3.000000e+000
    endloop
  endfacet
  facet normal 0.000000e+000 -0.000000e+000 1.000000e+000
    outer loop
      vertex   -1.247099e+002 4.699950e+001 3.000000e+000
      vertex   -1.244786e+002 5.019913e+001 3.000000e+000
      vertex   -1.247137e+002 5.051324e+001 3.000000e+000
    endloop
  endfacet
  facet normal 0.000000e+000 -0.000000e+000 1.000000e+000
    outer loop
      vertex   -1.247099e+002 4.699950e+001 3.000000e+000
      vertex   -1.242012e+002 4.992169e+001 3.000000e+000
      vertex   -1.244786e+002 5.019913e+001 3.000000e+000
    endloop
  endfacet
  facet normal 0.000000e+000 -0.000000e+000 1.000000e+000
    outer loop
      vertex   -1.247099e+002 4.699950e+001 3.000000e+000
      vertex   -1.238871e+002 4.968655e+001 3.000000e+000
      vertex   -1.242012e+002 4.992169e+001 3.000000e+000
    endloop
  endfacet
  facet normal 0.000000e+000 0.000000e+000 1.000000e+000
    outer loop
      vertex   -1.247099e+002 4.699950e+001 3.000000e+000
      vertex   -1.239626e+002 4.702746e+001 3.000000e+000
      vertex   -1.238871e+002 4.968655e+001 3.000000e+000
    endloop
  endfacet
  facet normal -0.000000e+000 0.000000e+000 1.000000e+000
    outer loop
      vertex   -1.238871e+002 4.968655e+001 3.000000e+000
      vertex   -1.239626e+002 4.702746e+001 3.000000e+000
      vertex   -1.235427e+002 4.949851e+001 3.000000e+000
    endloop
  endfacet
  facet normal -0.000000e+000 0.000000e+000 1.000000e+000
    outer loop
      vertex   -1.235427e+002 4.949851e+001 3.000000e+000
      vertex   -1.239626e+002 4.702746e+001 3.000000e+000
      vertex   -1.232195e+002 4.711119e+001 3.000000e+000
    endloop
  endfacet
  facet normal -0.000000e+000 0.000000e+000 1.000000e+000
    outer loop
      vertex   -1.231751e+002 4.936139e+001 3.000000e+000
      vertex   -1.232195e+002 4.711119e+001 3.000000e+000
      vertex   -1.227917e+002 4.927799e+001 3.000000e+000
    endloop
  endfacet
  facet normal 0.000000e+000 0.000000e+000 1.000000e+000
    outer loop
      vertex   -1.231751e+002 4.936139e+001 3.000000e+000
      vertex   -1.235427e+002 4.949851e+001 3.000000e+000
      vertex   -1.232195e+002 4.711119e+001 3.000000e+000
    endloop
  endfacet
  facet normal 0.000000e+000 -0.000000e+000 1.000000e+000
    outer loop
      vertex   -1.232195e+002 4.711119e+001 3.000000e+000
      vertex   -1.224847e+002 4.725022e+001 3.000000e+000
      vertex   -1.227917e+002 4.927799e+001 3.000000e+000
    endloop
  endfacet
  facet normal -0.000000e+000 0.000000e+000 1.000000e+000
    outer loop
      vertex   -1.227917e+002 4.927799e+001 3.000000e+000
      vertex   -1.224847e+002 4.725022e+001 3.000000e+000
      vertex   -1.224003e+002 4.925000e+001 3.000000e+000
    endloop
  endfacet
  facet normal -0.000000e+000 0.000000e+000 1.000000e+000
    outer loop
      vertex   -1.224003e+002 4.925000e+001 3.000000e+000
      vertex   -1.224847e+002 4.725022e+001 3.000000e+000
      vertex   -1.217623e+002 4.744377e+001 3.000000e+000
    endloop
  endfacet
  facet normal -0.000000e+000 0.000000e+000 1.000000e+000
    outer loop
      vertex   -1.220089e+002 4.927799e+001 3.000000e+000
      vertex   -1.217623e+002 4.744377e+001 3.000000e+000
      vertex   -1.216255e+002 4.936139e+001 3.000000e+000
    endloop
  endfacet
  facet normal 0.000000e+000 0.000000e+000 1.000000e+000
    outer loop
      vertex   -1.220089e+002 4.927799e+001 3.000000e+000
      vertex   -1.224003e+002 4.925000e+001 3.000000e+000
      vertex   -1.217623e+002 4.744377e+001 3.000000e+000
    endloop
  endfacet
  facet normal 0.000000e+000 -0.000000e+000 1.000000e+000
    outer loop
      vertex   -1.217623e+002 4.744377e+001 3.000000e+000
      vertex   -1.210565e+002 4.769076e+001 3.000000e+000
      vertex   -1.216255e+002 4.936139e+001 3.000000e+000
    endloop
  endfacet
  facet normal -0.000000e+000 -0.000000e+000 1.000000e+000
    outer loop
      vertex   -1.216255e+002 4.936139e+001 3.000000e+000
      vertex   -1.210565e+002 4.769076e+001 3.000000e+000
      vertex   -1.212579e+002 4.949851e+001 3.000000e+000
    endloop
  endfacet
  facet normal -0.000000e+000 0.000000e+000 1.000000e+000
    outer loop
      vertex   -1.212579e+002 4.949851e+001 3.000000e+000
      vertex   -1.210565e+002 4.769076e+001 3.000000e+000
      vertex   -1.203711e+002 4.798981e+001 3.000000e+000
    endloop
  endfacet
  facet normal -0.000000e+000 -0.000000e+000 1.000000e+000
    outer loop
      vertex   -1.209135e+002 4.968655e+001 3.000000e+000
      vertex   -1.203711e+002 4.798981e+001 3.000000e+000
      vertex   -1.205994e+002 4.992169e+001 3.000000e+000
    endloop
  endfacet
  facet normal 0.000000e+000 0.000000e+000 1.000000e+000
    outer loop
      vertex   -1.209135e+002 4.968655e+001 3.000000e+000
      vertex   -1.212579e+002 4.949851e+001 3.000000e+000
      vertex   -1.203711e+002 4.798981e+001 3.000000e+000
    endloop
  endfacet
  facet normal 0.000000e+000 -0.000000e+000 1.000000e+000
    outer loop
      vertex   -1.203711e+002 4.798981e+001 3.000000e+000
      vertex   -1.197099e+002 4.833925e+001 3.000000e+000
      vertex   -1.205994e+002 4.992169e+001 3.000000e+000
    endloop
  endfacet
  facet normal -0.000000e+000 -0.000000e+000 1.000000e+000
    outer loop
      vertex   -1.205994e+002 4.992169e+001 3.000000e+000
      vertex   -1.197099e+002 4.833925e+001 3.000000e+000
      vertex   -1.203220e+002 5.019913e+001 3.000000e+000
    endloop
  endfacet
  facet normal -0.000000e+000 0.000000e+000 1.000000e+000
    outer loop
      vertex   -1.203220e+002 5.019913e+001 3.000000e+000
      vertex   -1.197099e+002 4.833925e+001 3.000000e+000
      vertex   -1.190767e+002 4.873711e+001 3.000000e+000
    endloop
  endfacet
  facet normal -0.000000e+000 -0.000000e+000 1.000000e+000
    outer loop
      vertex   -1.200869e+002 5.051324e+001 3.000000e+000
      vertex   -1.190767e+002 4.873711e+001 3.000000e+000
      vertex   -1.198988e+002 5.085761e+001 3.000000e+000
    endloop
  endfacet
  facet normal 0.000000e+000 0.000000e+000 1.000000e+000
    outer loop
      vertex   -1.200869e+002 5.051324e+001 3.000000e+000
      vertex   -1.203220e+002 5.019913e+001 3.000000e+000
      vertex   -1.190767e+002 4.873711e+001 3.000000e+000
    endloop
  endfacet
  facet normal 0.000000e+000 -0.000000e+000 1.000000e+000
    outer loop
      vertex   -1.190767e+002 4.873711e+001 3.000000e+000
      vertex   -1.184750e+002 4.918119e+001 3.000000e+000
      vertex   -1.198988e+002 5.085761e+001 3.000000e+000
    endloop
  endfacet
  facet normal -0.000000e+000 -0.000000e+000 1.000000e+000
    outer loop
      vertex   -1.198988e+002 5.085761e+001 3.000000e+000
      vertex   -1.184750e+002 4.918119e+001 3.000000e+000
      vertex   -1.197617e+002 5.122524e+001 3.000000e+000
    endloop
  endfacet
  facet normal -0.000000e+000 0.000000e+000 1.000000e+000
    outer loop
      vertex   -1.197617e+002 5.122524e+001 3.000000e+000
      vertex   -1.184750e+002 4.918119e+001 3.000000e+000
      vertex   -1.179082e+002 4.966898e+001 3.000000e+000
    endloop
  endfacet
  facet normal -0.000000e+000 0.000000e+000 1.000000e+000
    outer loop
      vertex   -1.196783e+002 5.160863e+001 3.000000e+000
      vertex   -1.179082e+002 4.966898e+001 3.000000e+000
      vertex   -1.173794e+002 5.019777e+001 3.000000e+000
    endloop
  endfacet
  facet normal -0.000000e+000 0.000000e+000 1.000000e+000
    outer loop
      vertex   -1.196503e+002 5.200000e+001 3.000000e+000
      vertex   -1.173794e+002 5.019777e+001 3.000000e+000
      vertex   -1.168916e+002 5.076460e+001 3.000000e+000
    endloop
  endfacet
  facet normal -0.000000e+000 0.000000e+000 1.000000e+000
    outer loop
      vertex   -1.196783e+002 5.239137e+001 3.000000e+000
      vertex   -1.168916e+002 5.076460e+001 3.000000e+000
      vertex   -1.164475e+002 5.136630e+001 3.000000e+000
    endloop
  endfacet
  facet normal -0.000000e+000 0.000000e+000 1.000000e+000
    outer loop
      vertex   -1.197617e+002 5.277476e+001 3.000000e+000
      vertex   -1.164475e+002 5.136630e+001 3.000000e+000
      vertex   -1.160496e+002 5.199950e+001 3.000000e+000
    endloop
  endfacet
  facet normal 0.000000e+000 0.000000e+000 1.000000e+000
    outer loop
      vertex   -1.157002e+002 5.266066e+001 3.000000e+000
      vertex   -1.197617e+002 5.277476e+001 3.000000e+000
      vertex   -1.160496e+002 5.199950e+001 3.000000e+000
    endloop
  endfacet
  facet normal 0.000000e+000 0.000000e+000 1.000000e+000
    outer loop
      vertex   -1.157002e+002 5.266066e+001 3.000000e+000
      vertex   -1.198988e+002 5.314239e+001 3.000000e+000
      vertex   -1.197617e+002 5.277476e+001 3.000000e+000
    endloop
  endfacet
  facet normal 0.000000e+000 -0.000000e+000 1.000000e+000
    outer loop
      vertex   -1.157002e+002 5.266066e+001 3.000000e+000
      vertex   -1.154012e+002 5.334609e+001 3.000000e+000
      vertex   -1.198988e+002 5.314239e+001 3.000000e+000
    endloop
  endfacet
  facet normal 0.000000e+000 0.000000e+000 1.000000e+000
    outer loop
      vertex   -1.198988e+002 5.314239e+001 3.000000e+000
      vertex   -1.154012e+002 5.334609e+001 3.000000e+000
      vertex   -1.151542e+002 5.405195e+001 3.000000e+000
    endloop
  endfacet
  facet normal 0.000000e+000 0.000000e+000 1.000000e+000
    outer loop
      vertex   -1.200869e+002 5.348676e+001 3.000000e+000
      vertex   -1.151542e+002 5.405195e+001 3.000000e+000
      vertex   -1.149606e+002 5.477429e+001 3.000000e+000
    endloop
  endfacet
  facet normal -0.000000e+000 0.000000e+000 1.000000e+000
    outer loop
      vertex   -1.148216e+002 5.550908e+001 3.000000e+000
      vertex   -1.200869e+002 5.348676e+001 3.000000e+000
      vertex   -1.149606e+002 5.477429e+001 3.000000e+000
    endloop
  endfacet
  facet normal 0.000000e+000 -0.000000e+000 1.000000e+000
    outer loop
      vertex   -1.148216e+002 5.550908e+001 3.000000e+000
      vertex   -1.147379e+002 5.625220e+001 3.000000e+000
      vertex   -1.200869e+002 5.348676e+001 3.000000e+000
    endloop
  endfacet
  facet normal 0.000000e+000 -0.000000e+000 1.000000e+000
    outer loop
      vertex   -1.200869e+002 5.348676e+001 3.000000e+000
      vertex   -1.147379e+002 5.625220e+001 3.000000e+000
      vertex   -1.203220e+002 5.380087e+001 3.000000e+000
    endloop
  endfacet
  facet normal 0.000000e+000 0.000000e+000 1.000000e+000
    outer loop
      vertex   -1.203220e+002 5.380087e+001 3.000000e+000
      vertex   -1.147379e+002 5.625220e+001 3.000000e+000
      vertex   -1.147099e+002 5.699950e+001 3.000000e+000
    endloop
  endfacet
  facet normal 0.000000e+000 -0.000000e+000 1.000000e+000
    outer loop
      vertex   -1.205994e+002 5.407831e+001 3.000000e+000
      vertex   -1.147099e+002 5.699950e+001 3.000000e+000
      vertex   -1.209135e+002 5.431345e+001 3.000000e+000
    endloop
  endfacet
  facet normal -0.000000e+000 0.000000e+000 1.000000e+000
    outer loop
      vertex   -1.205994e+002 5.407831e+001 3.000000e+000
      vertex   -1.203220e+002 5.380087e+001 3.000000e+000
      vertex   -1.147099e+002 5.699950e+001 3.000000e+000
    endloop
  endfacet
  facet normal -0.000000e+000 -0.000000e+000 1.000000e+000
    outer loop
      vertex   -1.197617e+002 5.122524e+001 3.000000e+000
      vertex   -1.179082e+002 4.966898e+001 3.000000e+000
      vertex   -1.196783e+002 5.160863e+001 3.000000e+000
    endloop
  endfacet
  facet normal -0.000000e+000 -0.000000e+000 1.000000e+000
    outer loop
      vertex   -1.196783e+002 5.160863e+001 3.000000e+000
      vertex   -1.173794e+002 5.019777e+001 3.000000e+000
      vertex   -1.196503e+002 5.200000e+001 3.000000e+000
    endloop
  endfacet
  facet normal -0.000000e+000 -0.000000e+000 1.000000e+000
    outer loop
      vertex   -1.196503e+002 5.200000e+001 3.000000e+000
      vertex   -1.168916e+002 5.076460e+001 3.000000e+000
      vertex   -1.196783e+002 5.239137e+001 3.000000e+000
    endloop
  endfacet
  facet normal -0.000000e+000 -0.000000e+000 1.000000e+000
    outer loop
      vertex   -1.196783e+002 5.239137e+001 3.000000e+000
      vertex   -1.164475e+002 5.136630e+001 3.000000e+000
      vertex   -1.197617e+002 5.277476e+001 3.000000e+000
    endloop
  endfacet
  facet normal 0.000000e+000 -0.000000e+000 1.000000e+000
    outer loop
      vertex   -1.198988e+002 5.314239e+001 3.000000e+000
      vertex   -1.151542e+002 5.405195e+001 3.000000e+000
      vertex   -1.200869e+002 5.348676e+001 3.000000e+000
    endloop
  endfacet
  facet normal -0.000000e+000 0.000000e+000 1.000000e+000
    outer loop
      vertex   -1.147099e+002 8.413750e+001 3.000000e+000
      vertex   -1.220089e+002 5.472201e+001 3.000000e+000
      vertex   -1.147099e+002 5.699950e+001 3.000000e+000
    endloop
  endfacet
  facet normal 0.000000e+000 0.000000e+000 1.000000e+000
    outer loop
      vertex   -1.147099e+002 8.413750e+001 3.000000e+000
      vertex   -1.224003e+002 5.475000e+001 3.000000e+000
      vertex   -1.220089e+002 5.472201e+001 3.000000e+000
    endloop
  endfacet
  facet normal -0.000000e+000 0.000000e+000 1.000000e+000
    outer loop
      vertex   -1.147099e+002 8.413750e+001 3.000000e+000
      vertex   -1.227917e+002 5.472201e+001 3.000000e+000
      vertex   -1.224003e+002 5.475000e+001 3.000000e+000
    endloop
  endfacet
  facet normal -0.000000e+000 0.000000e+000 1.000000e+000
    outer loop
      vertex   -1.417099e+002 6.800000e+001 3.000000e+000
      vertex   -1.417099e+002 5.199950e+001 3.000000e+000
      vertex   -1.367099e+002 6.800000e+001 3.000000e+000
    endloop
  endfacet
  facet normal 0.000000e+000 0.000000e+000 1.000000e+000
    outer loop
      vertex   -1.367099e+002 6.800000e+001 3.000000e+000
      vertex   -1.417099e+002 5.199950e+001 3.000000e+000
      vertex   -1.367099e+002 4.699950e+001 3.000000e+000
    endloop
  endfacet
  facet normal 0.000000e+000 0.000000e+000 1.000000e+000
    outer loop
      vertex   -1.250389e+002 5.122524e+001 3.000000e+000
      vertex   -1.251223e+002 5.160863e+001 3.000000e+000
      vertex   -1.367099e+002 4.699950e+001 3.000000e+000
    endloop
  endfacet
  facet normal 0.000000e+000 -0.000000e+000 1.000000e+000
    outer loop
      vertex   -1.367099e+002 4.699950e+001 3.000000e+000
      vertex   -1.251223e+002 5.160863e+001 3.000000e+000
      vertex   -1.251503e+002 5.200000e+001 3.000000e+000
    endloop
  endfacet
  facet normal -0.000000e+000 0.000000e+000 1.000000e+000
    outer loop
      vertex   -1.251223e+002 5.239137e+001 3.000000e+000
      vertex   -1.367099e+002 4.699950e+001 3.000000e+000
      vertex   -1.251503e+002 5.200000e+001 3.000000e+000
    endloop
  endfacet
  facet normal 0.000000e+000 -0.000000e+000 1.000000e+000
    outer loop
      vertex   -1.251223e+002 5.239137e+001 3.000000e+000
      vertex   -1.250389e+002 5.277476e+001 3.000000e+000
      vertex   -1.367099e+002 4.699950e+001 3.000000e+000
    endloop
  endfacet
  facet normal -0.000000e+000 0.000000e+000 1.000000e+000
    outer loop
      vertex   -1.220089e+002 5.472201e+001 3.000000e+000
      vertex   -1.216255e+002 5.463861e+001 3.000000e+000
      vertex   -1.147099e+002 5.699950e+001 3.000000e+000
    endloop
  endfacet
  facet normal 0.000000e+000 0.000000e+000 1.000000e+000
    outer loop
      vertex   -1.147099e+002 5.699950e+001 3.000000e+000
      vertex   -1.216255e+002 5.463861e+001 3.000000e+000
      vertex   -1.212579e+002 5.450149e+001 3.000000e+000
    endloop
  endfacet
  facet normal 0.000000e+000 -0.000000e+000 1.000000e+000
    outer loop
      vertex   -1.209135e+002 5.431345e+001 3.000000e+000
      vertex   -1.147099e+002 5.699950e+001 3.000000e+000
      vertex   -1.212579e+002 5.450149e+001 3.000000e+000
    endloop
  endfacet
endsolid
